<svg xmlns="http://www.w3.org/2000/svg" viewBox="0 0 2048 2732" width="2048" height="2732"><defs><linearGradient id="lg1" x1="58.7%" y1="0.8%" x2="41.3%" y2="99.2%"><stop offset="0.0%" stop-color="#fff0f5"/><stop offset="100.0%" stop-color="#ffe0eb"/></linearGradient></defs><rect x="0.0" y="0.0" width="2048.0" height="2732.0" rx="0" fill="url(#lg1)" opacity="1.00"/><g><ellipse cx="628.9" cy="1947.4" rx="11.8" ry="20.3" fill="#ff5c8a" opacity="0.96" transform="rotate(0.0 628.9116120190417 1967.7051471268894)"/><ellipse cx="628.9" cy="1947.4" rx="11.8" ry="20.3" fill="#ff5c8a" opacity="0.96" transform="rotate(45.0 628.9116120190417 1967.7051471268894)"/><ellipse cx="628.9" cy="1947.4" rx="11.8" ry="20.3" fill="#ff5c8a" opacity="0.96" transform="rotate(90.0 628.9116120190417 1967.7051471268894)"/><ellipse cx="628.9" cy="1947.4" rx="11.8" ry="20.3" fill="#ff5c8a" opacity="0.96" transform="rotate(135.0 628.9116120190417 1967.7051471268894)"/><ellipse cx="628.9" cy="1947.4" rx="11.8" ry="20.3" fill="#ff5c8a" opacity="0.96" transform="rotate(180.0 628.9116120190417 1967.7051471268894)"/><ellipse cx="628.9" cy="1947.4" rx="11.8" ry="20.3" fill="#ff5c8a" opacity="0.96" transform="rotate(225.0 628.9116120190417 1967.7051471268894)"/><ellipse cx="628.9" cy="1947.4" rx="11.8" ry="20.3" fill="#ff5c8a" opacity="0.96" transform="rotate(270.0 628.9116120190417 1967.7051471268894)"/><ellipse cx="628.9" cy="1947.4" rx="11.8" ry="20.3" fill="#ff5c8a" opacity="0.96" transform="rotate(315.0 628.9116120190417 1967.7051471268894)"/><circle cx="628.9" cy="1967.7" r="11.1" fill="#ffe066" opacity="0.96"/></g><g><ellipse cx="1609.0" cy="1464.9" rx="16.7" ry="28.7" fill="#ff5c8a" opacity="0.98" transform="rotate(0.0 1608.9778267162894 1493.6138895885567)"/><ellipse cx="1609.0" cy="1464.9" rx="16.7" ry="28.7" fill="#ff5c8a" opacity="0.98" transform="rotate(72.0 1608.9778267162894 1493.6138895885567)"/><ellipse cx="1609.0" cy="1464.9" rx="16.7" ry="28.7" fill="#ff5c8a" opacity="0.98" transform="rotate(144.0 1608.9778267162894 1493.6138895885567)"/><ellipse cx="1609.0" cy="1464.9" rx="16.7" ry="28.7" fill="#ff5c8a" opacity="0.98" transform="rotate(216.0 1608.9778267162894 1493.6138895885567)"/><ellipse cx="1609.0" cy="1464.9" rx="16.7" ry="28.7" fill="#ff5c8a" opacity="0.98" transform="rotate(288.0 1608.9778267162894 1493.6138895885567)"/><circle cx="1609.0" cy="1493.6" r="15.7" fill="#ffe066" opacity="0.98"/></g><g><ellipse cx="896.6" cy="1174.0" rx="23.7" ry="40.7" fill="#c9184a" opacity="0.87" transform="rotate(0.0 896.6435749496454 1214.653155647889)"/><ellipse cx="896.6" cy="1174.0" rx="23.7" ry="40.7" fill="#c9184a" opacity="0.87" transform="rotate(72.0 896.6435749496454 1214.653155647889)"/><ellipse cx="896.6" cy="1174.0" rx="23.7" ry="40.7" fill="#c9184a" opacity="0.87" transform="rotate(144.0 896.6435749496454 1214.653155647889)"/><ellipse cx="896.6" cy="1174.0" rx="23.7" ry="40.7" fill="#c9184a" opacity="0.87" transform="rotate(216.0 896.6435749496454 1214.653155647889)"/><ellipse cx="896.6" cy="1174.0" rx="23.7" ry="40.7" fill="#c9184a" opacity="0.87" transform="rotate(288.0 896.6435749496454 1214.653155647889)"/><circle cx="896.6" cy="1214.7" r="22.2" fill="#ffe066" opacity="0.87"/></g><g><ellipse cx="513.8" cy="427.0" rx="14.6" ry="25.0" fill="#c9184a" opacity="0.88" transform="rotate(0.0 513.8047854176432 451.9594100230361)"/><ellipse cx="513.8" cy="427.0" rx="14.6" ry="25.0" fill="#c9184a" opacity="0.88" transform="rotate(60.0 513.8047854176432 451.9594100230361)"/><ellipse cx="513.8" cy="427.0" rx="14.6" ry="25.0" fill="#c9184a" opacity="0.88" transform="rotate(120.0 513.8047854176432 451.9594100230361)"/><ellipse cx="513.8" cy="427.0" rx="14.6" ry="25.0" fill="#c9184a" opacity="0.88" transform="rotate(180.0 513.8047854176432 451.9594100230361)"/><ellipse cx="513.8" cy="427.0" rx="14.6" ry="25.0" fill="#c9184a" opacity="0.88" transform="rotate(240.0 513.8047854176432 451.9594100230361)"/><ellipse cx="513.8" cy="427.0" rx="14.6" ry="25.0" fill="#c9184a" opacity="0.88" transform="rotate(300.0 513.8047854176432 451.9594100230361)"/><circle cx="513.8" cy="452.0" r="13.6" fill="#ffe066" opacity="0.88"/></g><g><ellipse cx="63.1" cy="1341.1" rx="25.5" ry="43.9" fill="#c9184a" opacity="0.89" transform="rotate(0.0 63.12386970561079 1384.9857889689051)"/><ellipse cx="63.1" cy="1341.1" rx="25.5" ry="43.9" fill="#c9184a" opacity="0.89" transform="rotate(45.0 63.12386970561079 1384.9857889689051)"/><ellipse cx="63.1" cy="1341.1" rx="25.5" ry="43.9" fill="#c9184a" opacity="0.89" transform="rotate(90.0 63.12386970561079 1384.9857889689051)"/><ellipse cx="63.1" cy="1341.1" rx="25.5" ry="43.9" fill="#c9184a" opacity="0.89" transform="rotate(135.0 63.12386970561079 1384.9857889689051)"/><ellipse cx="63.1" cy="1341.1" rx="25.5" ry="43.9" fill="#c9184a" opacity="0.89" transform="rotate(180.0 63.12386970561079 1384.9857889689051)"/><ellipse cx="63.1" cy="1341.1" rx="25.5" ry="43.9" fill="#c9184a" opacity="0.89" transform="rotate(225.0 63.12386970561079 1384.9857889689051)"/><ellipse cx="63.1" cy="1341.1" rx="25.5" ry="43.9" fill="#c9184a" opacity="0.89" transform="rotate(270.0 63.12386970561079 1384.9857889689051)"/><ellipse cx="63.1" cy="1341.1" rx="25.5" ry="43.9" fill="#c9184a" opacity="0.89" transform="rotate(315.0 63.12386970561079 1384.9857889689051)"/><circle cx="63.1" cy="1385.0" r="23.9" fill="#ffe066" opacity="0.89"/></g><g><ellipse cx="474.6" cy="1046.1" rx="17.4" ry="30.0" fill="#ff5c8a" opacity="0.96" transform="rotate(0.0 474.6225732299238 1076.0943931467289)"/><ellipse cx="474.6" cy="1046.1" rx="17.4" ry="30.0" fill="#ff5c8a" opacity="0.96" transform="rotate(45.0 474.6225732299238 1076.0943931467289)"/><ellipse cx="474.6" cy="1046.1" rx="17.4" ry="30.0" fill="#ff5c8a" opacity="0.96" transform="rotate(90.0 474.6225732299238 1076.0943931467289)"/><ellipse cx="474.6" cy="1046.1" rx="17.4" ry="30.0" fill="#ff5c8a" opacity="0.96" transform="rotate(135.0 474.6225732299238 1076.0943931467289)"/><ellipse cx="474.6" cy="1046.1" rx="17.4" ry="30.0" fill="#ff5c8a" opacity="0.96" transform="rotate(180.0 474.6225732299238 1076.0943931467289)"/><ellipse cx="474.6" cy="1046.1" rx="17.4" ry="30.0" fill="#ff5c8a" opacity="0.96" transform="rotate(225.0 474.6225732299238 1076.0943931467289)"/><ellipse cx="474.6" cy="1046.1" rx="17.4" ry="30.0" fill="#ff5c8a" opacity="0.96" transform="rotate(270.0 474.6225732299238 1076.0943931467289)"/><ellipse cx="474.6" cy="1046.1" rx="17.4" ry="30.0" fill="#ff5c8a" opacity="0.96" transform="rotate(315.0 474.6225732299238 1076.0943931467289)"/><circle cx="474.6" cy="1076.1" r="16.3" fill="#ffe066" opacity="0.96"/></g><g><ellipse cx="1737.5" cy="433.5" rx="17.4" ry="29.9" fill="#ff5c8a" opacity="1.00" transform="rotate(0.0 1737.4660102308578 463.3674637511002)"/><ellipse cx="1737.5" cy="433.5" rx="17.4" ry="29.9" fill="#ff5c8a" opacity="1.00" transform="rotate(45.0 1737.4660102308578 463.3674637511002)"/><ellipse cx="1737.5" cy="433.5" rx="17.4" ry="29.9" fill="#ff5c8a" opacity="1.00" transform="rotate(90.0 1737.4660102308578 463.3674637511002)"/><ellipse cx="1737.5" cy="433.5" rx="17.4" ry="29.9" fill="#ff5c8a" opacity="1.00" transform="rotate(135.0 1737.4660102308578 463.3674637511002)"/><ellipse cx="1737.5" cy="433.5" rx="17.4" ry="29.9" fill="#ff5c8a" opacity="1.00" transform="rotate(180.0 1737.4660102308578 463.3674637511002)"/><ellipse cx="1737.5" cy="433.5" rx="17.4" ry="29.9" fill="#ff5c8a" opacity="1.00" transform="rotate(225.0 1737.4660102308578 463.3674637511002)"/><ellipse cx="1737.5" cy="433.5" rx="17.4" ry="29.9" fill="#ff5c8a" opacity="1.00" transform="rotate(270.0 1737.4660102308578 463.3674637511002)"/><ellipse cx="1737.5" cy="433.5" rx="17.4" ry="29.9" fill="#ff5c8a" opacity="1.00" transform="rotate(315.0 1737.4660102308578 463.3674637511002)"/><circle cx="1737.5" cy="463.4" r="16.3" fill="#ffe066" opacity="1.00"/></g><g><ellipse cx="319.7" cy="1697.1" rx="16.0" ry="27.4" fill="#ff5c8a" opacity="0.91" transform="rotate(0.0 319.70273934220995 1724.5690582375896)"/><ellipse cx="319.7" cy="1697.1" rx="16.0" ry="27.4" fill="#ff5c8a" opacity="0.91" transform="rotate(72.0 319.70273934220995 1724.5690582375896)"/><ellipse cx="319.7" cy="1697.1" rx="16.0" ry="27.4" fill="#ff5c8a" opacity="0.91" transform="rotate(144.0 319.70273934220995 1724.5690582375896)"/><ellipse cx="319.7" cy="1697.1" rx="16.0" ry="27.4" fill="#ff5c8a" opacity="0.91" transform="rotate(216.0 319.70273934220995 1724.5690582375896)"/><ellipse cx="319.7" cy="1697.1" rx="16.0" ry="27.4" fill="#ff5c8a" opacity="0.91" transform="rotate(288.0 319.70273934220995 1724.5690582375896)"/><circle cx="319.7" cy="1724.6" r="15.0" fill="#ffe066" opacity="0.91"/></g><g><ellipse cx="26.8" cy="2339.6" rx="22.4" ry="38.5" fill="#ff5c8a" opacity="0.87" transform="rotate(0.0 26.7786104200552 2378.1558530440793)"/><ellipse cx="26.8" cy="2339.6" rx="22.4" ry="38.5" fill="#ff5c8a" opacity="0.87" transform="rotate(60.0 26.7786104200552 2378.1558530440793)"/><ellipse cx="26.8" cy="2339.6" rx="22.4" ry="38.5" fill="#ff5c8a" opacity="0.87" transform="rotate(120.0 26.7786104200552 2378.1558530440793)"/><ellipse cx="26.8" cy="2339.6" rx="22.4" ry="38.5" fill="#ff5c8a" opacity="0.87" transform="rotate(180.0 26.7786104200552 2378.1558530440793)"/><ellipse cx="26.8" cy="2339.6" rx="22.4" ry="38.5" fill="#ff5c8a" opacity="0.87" transform="rotate(240.0 26.7786104200552 2378.1558530440793)"/><ellipse cx="26.8" cy="2339.6" rx="22.4" ry="38.5" fill="#ff5c8a" opacity="0.87" transform="rotate(300.0 26.7786104200552 2378.1558530440793)"/><circle cx="26.8" cy="2378.2" r="21.0" fill="#ffe066" opacity="0.87"/></g><g><ellipse cx="1744.6" cy="929.3" rx="14.1" ry="24.3" fill="#ff5c8a" opacity="0.89" transform="rotate(0.0 1744.5979983606626 953.5319069812862)"/><ellipse cx="1744.6" cy="929.3" rx="14.1" ry="24.3" fill="#ff5c8a" opacity="0.89" transform="rotate(72.0 1744.5979983606626 953.5319069812862)"/><ellipse cx="1744.6" cy="929.3" rx="14.1" ry="24.3" fill="#ff5c8a" opacity="0.89" transform="rotate(144.0 1744.5979983606626 953.5319069812862)"/><ellipse cx="1744.6" cy="929.3" rx="14.1" ry="24.3" fill="#ff5c8a" opacity="0.89" transform="rotate(216.0 1744.5979983606626 953.5319069812862)"/><ellipse cx="1744.6" cy="929.3" rx="14.1" ry="24.3" fill="#ff5c8a" opacity="0.89" transform="rotate(288.0 1744.5979983606626 953.5319069812862)"/><circle cx="1744.6" cy="953.5" r="13.2" fill="#ffe066" opacity="0.89"/></g><g><ellipse cx="1735.9" cy="2357.9" rx="13.2" ry="22.7" fill="#ff5c8a" opacity="0.86" transform="rotate(0.0 1735.946092413434 2380.631326804239)"/><ellipse cx="1735.9" cy="2357.9" rx="13.2" ry="22.7" fill="#ff5c8a" opacity="0.86" transform="rotate(72.0 1735.946092413434 2380.631326804239)"/><ellipse cx="1735.9" cy="2357.9" rx="13.2" ry="22.7" fill="#ff5c8a" opacity="0.86" transform="rotate(144.0 1735.946092413434 2380.631326804239)"/><ellipse cx="1735.9" cy="2357.9" rx="13.2" ry="22.7" fill="#ff5c8a" opacity="0.86" transform="rotate(216.0 1735.946092413434 2380.631326804239)"/><ellipse cx="1735.9" cy="2357.9" rx="13.2" ry="22.7" fill="#ff5c8a" opacity="0.86" transform="rotate(288.0 1735.946092413434 2380.631326804239)"/><circle cx="1735.9" cy="2380.6" r="12.4" fill="#ffe066" opacity="0.86"/></g><g><ellipse cx="1852.0" cy="929.0" rx="18.8" ry="32.3" fill="#ff8fa3" opacity="0.86" transform="rotate(0.0 1851.955380937298 961.30053686271)"/><ellipse cx="1852.0" cy="929.0" rx="18.8" ry="32.3" fill="#ff8fa3" opacity="0.86" transform="rotate(72.0 1851.955380937298 961.30053686271)"/><ellipse cx="1852.0" cy="929.0" rx="18.8" ry="32.3" fill="#ff8fa3" opacity="0.86" transform="rotate(144.0 1851.955380937298 961.30053686271)"/><ellipse cx="1852.0" cy="929.0" rx="18.8" ry="32.3" fill="#ff8fa3" opacity="0.86" transform="rotate(216.0 1851.955380937298 961.30053686271)"/><ellipse cx="1852.0" cy="929.0" rx="18.8" ry="32.3" fill="#ff8fa3" opacity="0.86" transform="rotate(288.0 1851.955380937298 961.30053686271)"/><circle cx="1852.0" cy="961.3" r="17.6" fill="#ffe066" opacity="0.86"/></g><g><ellipse cx="1645.8" cy="1067.5" rx="12.2" ry="21.0" fill="#ff5c8a" opacity="0.92" transform="rotate(0.0 1645.8370044200087 1088.4798291548673)"/><ellipse cx="1645.8" cy="1067.5" rx="12.2" ry="21.0" fill="#ff5c8a" opacity="0.92" transform="rotate(60.0 1645.8370044200087 1088.4798291548673)"/><ellipse cx="1645.8" cy="1067.5" rx="12.2" ry="21.0" fill="#ff5c8a" opacity="0.92" transform="rotate(120.0 1645.8370044200087 1088.4798291548673)"/><ellipse cx="1645.8" cy="1067.5" rx="12.2" ry="21.0" fill="#ff5c8a" opacity="0.92" transform="rotate(180.0 1645.8370044200087 1088.4798291548673)"/><ellipse cx="1645.8" cy="1067.5" rx="12.2" ry="21.0" fill="#ff5c8a" opacity="0.92" transform="rotate(240.0 1645.8370044200087 1088.4798291548673)"/><ellipse cx="1645.8" cy="1067.5" rx="12.2" ry="21.0" fill="#ff5c8a" opacity="0.92" transform="rotate(300.0 1645.8370044200087 1088.4798291548673)"/><circle cx="1645.8" cy="1088.5" r="11.4" fill="#ffe066" opacity="0.92"/></g><g><ellipse cx="422.8" cy="1975.7" rx="21.7" ry="37.3" fill="#ff5c8a" opacity="0.85" transform="rotate(0.0 422.8214813619177 2013.0505327908875)"/><ellipse cx="422.8" cy="1975.7" rx="21.7" ry="37.3" fill="#ff5c8a" opacity="0.85" transform="rotate(45.0 422.8214813619177 2013.0505327908875)"/><ellipse cx="422.8" cy="1975.7" rx="21.7" ry="37.3" fill="#ff5c8a" opacity="0.85" transform="rotate(90.0 422.8214813619177 2013.0505327908875)"/><ellipse cx="422.8" cy="1975.7" rx="21.7" ry="37.3" fill="#ff5c8a" opacity="0.85" transform="rotate(135.0 422.8214813619177 2013.0505327908875)"/><ellipse cx="422.8" cy="1975.7" rx="21.7" ry="37.3" fill="#ff5c8a" opacity="0.85" transform="rotate(180.0 422.8214813619177 2013.0505327908875)"/><ellipse cx="422.8" cy="1975.7" rx="21.7" ry="37.3" fill="#ff5c8a" opacity="0.85" transform="rotate(225.0 422.8214813619177 2013.0505327908875)"/><ellipse cx="422.8" cy="1975.7" rx="21.7" ry="37.3" fill="#ff5c8a" opacity="0.85" transform="rotate(270.0 422.8214813619177 2013.0505327908875)"/><ellipse cx="422.8" cy="1975.7" rx="21.7" ry="37.3" fill="#ff5c8a" opacity="0.85" transform="rotate(315.0 422.8214813619177 2013.0505327908875)"/><circle cx="422.8" cy="2013.1" r="20.4" fill="#ffe066" opacity="0.85"/></g><g><ellipse cx="165.8" cy="93.2" rx="18.1" ry="31.1" fill="#c9184a" opacity="0.88" transform="rotate(0.0 165.76034790985 124.3465977973252)"/><ellipse cx="165.8" cy="93.2" rx="18.1" ry="31.1" fill="#c9184a" opacity="0.88" transform="rotate(45.0 165.76034790985 124.3465977973252)"/><ellipse cx="165.8" cy="93.2" rx="18.1" ry="31.1" fill="#c9184a" opacity="0.88" transform="rotate(90.0 165.76034790985 124.3465977973252)"/><ellipse cx="165.8" cy="93.2" rx="18.1" ry="31.1" fill="#c9184a" opacity="0.88" transform="rotate(135.0 165.76034790985 124.3465977973252)"/><ellipse cx="165.8" cy="93.2" rx="18.1" ry="31.1" fill="#c9184a" opacity="0.88" transform="rotate(180.0 165.76034790985 124.3465977973252)"/><ellipse cx="165.8" cy="93.2" rx="18.1" ry="31.1" fill="#c9184a" opacity="0.88" transform="rotate(225.0 165.76034790985 124.3465977973252)"/><ellipse cx="165.8" cy="93.2" rx="18.1" ry="31.1" fill="#c9184a" opacity="0.88" transform="rotate(270.0 165.76034790985 124.3465977973252)"/><ellipse cx="165.8" cy="93.2" rx="18.1" ry="31.1" fill="#c9184a" opacity="0.88" transform="rotate(315.0 165.76034790985 124.3465977973252)"/><circle cx="165.8" cy="124.3" r="17.0" fill="#ffe066" opacity="0.88"/></g><g><ellipse cx="220.3" cy="860.2" rx="11.4" ry="19.5" fill="#ff5c8a" opacity="0.95" transform="rotate(0.0 220.33132733472576 879.7451002865976)"/><ellipse cx="220.3" cy="860.2" rx="11.4" ry="19.5" fill="#ff5c8a" opacity="0.95" transform="rotate(45.0 220.33132733472576 879.7451002865976)"/><ellipse cx="220.3" cy="860.2" rx="11.4" ry="19.5" fill="#ff5c8a" opacity="0.95" transform="rotate(90.0 220.33132733472576 879.7451002865976)"/><ellipse cx="220.3" cy="860.2" rx="11.4" ry="19.5" fill="#ff5c8a" opacity="0.95" transform="rotate(135.0 220.33132733472576 879.7451002865976)"/><ellipse cx="220.3" cy="860.2" rx="11.4" ry="19.5" fill="#ff5c8a" opacity="0.95" transform="rotate(180.0 220.33132733472576 879.7451002865976)"/><ellipse cx="220.3" cy="860.2" rx="11.4" ry="19.5" fill="#ff5c8a" opacity="0.95" transform="rotate(225.0 220.33132733472576 879.7451002865976)"/><ellipse cx="220.3" cy="860.2" rx="11.4" ry="19.5" fill="#ff5c8a" opacity="0.95" transform="rotate(270.0 220.33132733472576 879.7451002865976)"/><ellipse cx="220.3" cy="860.2" rx="11.4" ry="19.5" fill="#ff5c8a" opacity="0.95" transform="rotate(315.0 220.33132733472576 879.7451002865976)"/><circle cx="220.3" cy="879.7" r="10.6" fill="#ffe066" opacity="0.95"/></g><g><ellipse cx="941.9" cy="1378.7" rx="13.2" ry="22.7" fill="#ff8fa3" opacity="0.86" transform="rotate(0.0 941.907981229291 1401.388250133232)"/><ellipse cx="941.9" cy="1378.7" rx="13.2" ry="22.7" fill="#ff8fa3" opacity="0.86" transform="rotate(60.0 941.907981229291 1401.388250133232)"/><ellipse cx="941.9" cy="1378.7" rx="13.2" ry="22.7" fill="#ff8fa3" opacity="0.86" transform="rotate(120.0 941.907981229291 1401.388250133232)"/><ellipse cx="941.9" cy="1378.7" rx="13.2" ry="22.7" fill="#ff8fa3" opacity="0.86" transform="rotate(180.0 941.907981229291 1401.388250133232)"/><ellipse cx="941.9" cy="1378.7" rx="13.2" ry="22.7" fill="#ff8fa3" opacity="0.86" transform="rotate(240.0 941.907981229291 1401.388250133232)"/><ellipse cx="941.9" cy="1378.7" rx="13.2" ry="22.7" fill="#ff8fa3" opacity="0.86" transform="rotate(300.0 941.907981229291 1401.388250133232)"/><circle cx="941.9" cy="1401.4" r="12.4" fill="#ffe066" opacity="0.86"/></g><g><ellipse cx="1714.3" cy="643.9" rx="14.8" ry="25.5" fill="#c9184a" opacity="0.87" transform="rotate(0.0 1714.2913627038247 669.4394719137144)"/><ellipse cx="1714.3" cy="643.9" rx="14.8" ry="25.5" fill="#c9184a" opacity="0.87" transform="rotate(45.0 1714.2913627038247 669.4394719137144)"/><ellipse cx="1714.3" cy="643.9" rx="14.8" ry="25.5" fill="#c9184a" opacity="0.87" transform="rotate(90.0 1714.2913627038247 669.4394719137144)"/><ellipse cx="1714.3" cy="643.9" rx="14.8" ry="25.5" fill="#c9184a" opacity="0.87" transform="rotate(135.0 1714.2913627038247 669.4394719137144)"/><ellipse cx="1714.3" cy="643.9" rx="14.8" ry="25.5" fill="#c9184a" opacity="0.87" transform="rotate(180.0 1714.2913627038247 669.4394719137144)"/><ellipse cx="1714.3" cy="643.9" rx="14.8" ry="25.5" fill="#c9184a" opacity="0.87" transform="rotate(225.0 1714.2913627038247 669.4394719137144)"/><ellipse cx="1714.3" cy="643.9" rx="14.8" ry="25.5" fill="#c9184a" opacity="0.87" transform="rotate(270.0 1714.2913627038247 669.4394719137144)"/><ellipse cx="1714.3" cy="643.9" rx="14.8" ry="25.5" fill="#c9184a" opacity="0.87" transform="rotate(315.0 1714.2913627038247 669.4394719137144)"/><circle cx="1714.3" cy="669.4" r="13.9" fill="#ffe066" opacity="0.87"/></g><g><ellipse cx="1385.8" cy="125.1" rx="11.5" ry="19.8" fill="#ff8fa3" opacity="0.96" transform="rotate(0.0 1385.7884304265644 144.90510111720707)"/><ellipse cx="1385.8" cy="125.1" rx="11.5" ry="19.8" fill="#ff8fa3" opacity="0.96" transform="rotate(60.0 1385.7884304265644 144.90510111720707)"/><ellipse cx="1385.8" cy="125.1" rx="11.5" ry="19.8" fill="#ff8fa3" opacity="0.96" transform="rotate(120.0 1385.7884304265644 144.90510111720707)"/><ellipse cx="1385.8" cy="125.1" rx="11.5" ry="19.8" fill="#ff8fa3" opacity="0.96" transform="rotate(180.0 1385.7884304265644 144.90510111720707)"/><ellipse cx="1385.8" cy="125.1" rx="11.5" ry="19.8" fill="#ff8fa3" opacity="0.96" transform="rotate(240.0 1385.7884304265644 144.90510111720707)"/><ellipse cx="1385.8" cy="125.1" rx="11.5" ry="19.8" fill="#ff8fa3" opacity="0.96" transform="rotate(300.0 1385.7884304265644 144.90510111720707)"/><circle cx="1385.8" cy="144.9" r="10.8" fill="#ffe066" opacity="0.96"/></g><g><ellipse cx="169.8" cy="801.6" rx="16.7" ry="28.8" fill="#ff5c8a" opacity="0.87" transform="rotate(0.0 169.7951652929512 830.3330644776504)"/><ellipse cx="169.8" cy="801.6" rx="16.7" ry="28.8" fill="#ff5c8a" opacity="0.87" transform="rotate(72.0 169.7951652929512 830.3330644776504)"/><ellipse cx="169.8" cy="801.6" rx="16.7" ry="28.8" fill="#ff5c8a" opacity="0.87" transform="rotate(144.0 169.7951652929512 830.3330644776504)"/><ellipse cx="169.8" cy="801.6" rx="16.7" ry="28.8" fill="#ff5c8a" opacity="0.87" transform="rotate(216.0 169.7951652929512 830.3330644776504)"/><ellipse cx="169.8" cy="801.6" rx="16.7" ry="28.8" fill="#ff5c8a" opacity="0.87" transform="rotate(288.0 169.7951652929512 830.3330644776504)"/><circle cx="169.8" cy="830.3" r="15.7" fill="#ffe066" opacity="0.87"/></g><g><ellipse cx="395.2" cy="2637.9" rx="11.4" ry="19.7" fill="#ff5c8a" opacity="0.93" transform="rotate(0.0 395.21200347738363 2657.5093707694773)"/><ellipse cx="395.2" cy="2637.9" rx="11.4" ry="19.7" fill="#ff5c8a" opacity="0.93" transform="rotate(72.0 395.21200347738363 2657.5093707694773)"/><ellipse cx="395.2" cy="2637.9" rx="11.4" ry="19.7" fill="#ff5c8a" opacity="0.93" transform="rotate(144.0 395.21200347738363 2657.5093707694773)"/><ellipse cx="395.2" cy="2637.9" rx="11.4" ry="19.7" fill="#ff5c8a" opacity="0.93" transform="rotate(216.0 395.21200347738363 2657.5093707694773)"/><ellipse cx="395.2" cy="2637.9" rx="11.4" ry="19.7" fill="#ff5c8a" opacity="0.93" transform="rotate(288.0 395.21200347738363 2657.5093707694773)"/><circle cx="395.2" cy="2657.5" r="10.7" fill="#ffe066" opacity="0.93"/></g><g><ellipse cx="1071.6" cy="1979.9" rx="14.6" ry="25.1" fill="#ff8fa3" opacity="0.89" transform="rotate(0.0 1071.6425722386603 2004.9485526904127)"/><ellipse cx="1071.6" cy="1979.9" rx="14.6" ry="25.1" fill="#ff8fa3" opacity="0.89" transform="rotate(72.0 1071.6425722386603 2004.9485526904127)"/><ellipse cx="1071.6" cy="1979.9" rx="14.6" ry="25.1" fill="#ff8fa3" opacity="0.89" transform="rotate(144.0 1071.6425722386603 2004.9485526904127)"/><ellipse cx="1071.6" cy="1979.9" rx="14.6" ry="25.1" fill="#ff8fa3" opacity="0.89" transform="rotate(216.0 1071.6425722386603 2004.9485526904127)"/><ellipse cx="1071.6" cy="1979.9" rx="14.6" ry="25.1" fill="#ff8fa3" opacity="0.89" transform="rotate(288.0 1071.6425722386603 2004.9485526904127)"/><circle cx="1071.6" cy="2004.9" r="13.7" fill="#ffe066" opacity="0.89"/></g><g><ellipse cx="1721.6" cy="510.3" rx="12.7" ry="21.8" fill="#c9184a" opacity="0.94" transform="rotate(0.0 1721.5554530191841 532.0203224292534)"/><ellipse cx="1721.6" cy="510.3" rx="12.7" ry="21.8" fill="#c9184a" opacity="0.94" transform="rotate(45.0 1721.5554530191841 532.0203224292534)"/><ellipse cx="1721.6" cy="510.3" rx="12.7" ry="21.8" fill="#c9184a" opacity="0.94" transform="rotate(90.0 1721.5554530191841 532.0203224292534)"/><ellipse cx="1721.6" cy="510.3" rx="12.7" ry="21.8" fill="#c9184a" opacity="0.94" transform="rotate(135.0 1721.5554530191841 532.0203224292534)"/><ellipse cx="1721.6" cy="510.3" rx="12.7" ry="21.8" fill="#c9184a" opacity="0.94" transform="rotate(180.0 1721.5554530191841 532.0203224292534)"/><ellipse cx="1721.6" cy="510.3" rx="12.7" ry="21.8" fill="#c9184a" opacity="0.94" transform="rotate(225.0 1721.5554530191841 532.0203224292534)"/><ellipse cx="1721.6" cy="510.3" rx="12.7" ry="21.8" fill="#c9184a" opacity="0.94" transform="rotate(270.0 1721.5554530191841 532.0203224292534)"/><ellipse cx="1721.6" cy="510.3" rx="12.7" ry="21.8" fill="#c9184a" opacity="0.94" transform="rotate(315.0 1721.5554530191841 532.0203224292534)"/><circle cx="1721.6" cy="532.0" r="11.9" fill="#ffe066" opacity="0.94"/></g><g><ellipse cx="1729.5" cy="125.7" rx="12.2" ry="20.9" fill="#c9184a" opacity="0.98" transform="rotate(0.0 1729.4883606384626 146.58248059455516)"/><ellipse cx="1729.5" cy="125.7" rx="12.2" ry="20.9" fill="#c9184a" opacity="0.98" transform="rotate(45.0 1729.4883606384626 146.58248059455516)"/><ellipse cx="1729.5" cy="125.7" rx="12.2" ry="20.9" fill="#c9184a" opacity="0.98" transform="rotate(90.0 1729.4883606384626 146.58248059455516)"/><ellipse cx="1729.5" cy="125.7" rx="12.2" ry="20.9" fill="#c9184a" opacity="0.98" transform="rotate(135.0 1729.4883606384626 146.58248059455516)"/><ellipse cx="1729.5" cy="125.7" rx="12.2" ry="20.9" fill="#c9184a" opacity="0.98" transform="rotate(180.0 1729.4883606384626 146.58248059455516)"/><ellipse cx="1729.5" cy="125.7" rx="12.2" ry="20.9" fill="#c9184a" opacity="0.98" transform="rotate(225.0 1729.4883606384626 146.58248059455516)"/><ellipse cx="1729.5" cy="125.7" rx="12.2" ry="20.9" fill="#c9184a" opacity="0.98" transform="rotate(270.0 1729.4883606384626 146.58248059455516)"/><ellipse cx="1729.5" cy="125.7" rx="12.2" ry="20.9" fill="#c9184a" opacity="0.98" transform="rotate(315.0 1729.4883606384626 146.58248059455516)"/><circle cx="1729.5" cy="146.6" r="11.4" fill="#ffe066" opacity="0.98"/></g><g><ellipse cx="395.4" cy="2148.1" rx="23.3" ry="40.0" fill="#ff5c8a" opacity="0.94" transform="rotate(0.0 395.4429009068633 2188.130089795761)"/><ellipse cx="395.4" cy="2148.1" rx="23.3" ry="40.0" fill="#ff5c8a" opacity="0.94" transform="rotate(60.0 395.4429009068633 2188.130089795761)"/><ellipse cx="395.4" cy="2148.1" rx="23.3" ry="40.0" fill="#ff5c8a" opacity="0.94" transform="rotate(120.0 395.4429009068633 2188.130089795761)"/><ellipse cx="395.4" cy="2148.1" rx="23.3" ry="40.0" fill="#ff5c8a" opacity="0.94" transform="rotate(180.0 395.4429009068633 2188.130089795761)"/><ellipse cx="395.4" cy="2148.1" rx="23.3" ry="40.0" fill="#ff5c8a" opacity="0.94" transform="rotate(240.0 395.4429009068633 2188.130089795761)"/><ellipse cx="395.4" cy="2148.1" rx="23.3" ry="40.0" fill="#ff5c8a" opacity="0.94" transform="rotate(300.0 395.4429009068633 2188.130089795761)"/><circle cx="395.4" cy="2188.1" r="21.8" fill="#ffe066" opacity="0.94"/></g><g><ellipse cx="738.6" cy="1464.2" rx="24.9" ry="42.8" fill="#c9184a" opacity="0.98" transform="rotate(0.0 738.6164849243316 1507.068963403252)"/><ellipse cx="738.6" cy="1464.2" rx="24.9" ry="42.8" fill="#c9184a" opacity="0.98" transform="rotate(60.0 738.6164849243316 1507.068963403252)"/><ellipse cx="738.6" cy="1464.2" rx="24.9" ry="42.8" fill="#c9184a" opacity="0.98" transform="rotate(120.0 738.6164849243316 1507.068963403252)"/><ellipse cx="738.6" cy="1464.2" rx="24.9" ry="42.8" fill="#c9184a" opacity="0.98" transform="rotate(180.0 738.6164849243316 1507.068963403252)"/><ellipse cx="738.6" cy="1464.2" rx="24.9" ry="42.8" fill="#c9184a" opacity="0.98" transform="rotate(240.0 738.6164849243316 1507.068963403252)"/><ellipse cx="738.6" cy="1464.2" rx="24.9" ry="42.8" fill="#c9184a" opacity="0.98" transform="rotate(300.0 738.6164849243316 1507.068963403252)"/><circle cx="738.6" cy="1507.1" r="23.4" fill="#ffe066" opacity="0.98"/></g></svg>