<svg xmlns="http://www.w3.org/2000/svg" viewBox="0 0 2048 2732" width="2048" height="2732"><defs><linearGradient id="lg1" x1="14.6%" y1="14.6%" x2="85.4%" y2="85.4%"><stop offset="0.0%" stop-color="#00f5d4"/><stop offset="33.3%" stop-color="#00bbf9"/><stop offset="66.7%" stop-color="#9b5de5"/><stop offset="100.0%" stop-color="#f15bb5"/></linearGradient></defs><rect x="0.0" y="0.0" width="2048.0" height="2732.0" rx="0" fill="url(#lg1)" opacity="1.00"/><polygon points="560.4,2077.0 505.8,2100.0 482.8,2154.5 459.8,2100.0 405.3,2077.0 459.8,2054.0 482.8,1999.4 505.8,2054.0" fill="#ffffff" opacity="0.79"/><polygon points="975.5,2107.1 918.6,2131.2 894.6,2188.1 870.5,2131.2 813.6,2107.1 870.5,2083.1 894.6,2026.2 918.6,2083.1" fill="#ffffff" opacity="0.74"/><polygon points="1230.4,1982.0 1187.5,2000.1 1169.4,2043.0 1151.3,2000.1 1108.4,1982.0 1151.3,1963.9 1169.4,1921.0 1187.5,1963.9" fill="#ffffff" opacity="0.78"/><polygon points="1664.0,567.8 1602.2,593.9 1576.0,655.8 1549.9,593.9 1488.0,567.8 1549.9,541.7 1576.0,479.8 1602.2,541.7" fill="#ffffff" opacity="0.78"/><polygon points="224.5,1037.5 176.5,1057.7 156.3,1105.7 136.0,1057.7 88.1,1037.5 136.0,1017.2 156.3,969.3 176.5,1017.2" fill="#ffffff" opacity="0.75"/><polygon points="488.6,2641.7 447.8,2658.9 430.6,2699.7 413.4,2658.9 372.6,2641.7 413.4,2624.4 430.6,2583.6 447.8,2624.4" fill="#ffffff" opacity="0.79"/><polygon points="617.2,2709.3 583.5,2723.5 569.3,2757.3 555.0,2723.5 521.3,2709.3 555.0,2695.1 569.3,2661.4 583.5,2695.1" fill="#ffffff" opacity="0.73"/><polygon points="196.2,2050.7 139.7,2074.6 115.8,2131.2 91.9,2074.6 35.3,2050.7 91.9,2026.8 115.8,1970.3 139.7,2026.8" fill="#ffffff" opacity="0.76"/><polygon points="1787.2,18.8 1744.0,37.1 1725.7,80.4 1707.4,37.1 1664.1,18.8 1707.4,0.5 1725.7,-42.8 1744.0,0.5" fill="#ffffff" opacity="0.71"/><polygon points="1428.2,1440.6 1393.9,1455.0 1379.4,1489.4 1365.0,1455.0 1330.6,1440.6 1365.0,1426.1 1379.4,1391.7 1393.9,1426.1" fill="#ffffff" opacity="0.77"/><polygon points="1491.0,1430.7 1436.0,1453.9 1412.7,1509.0 1389.4,1453.9 1334.4,1430.7 1389.4,1407.4 1412.7,1352.4 1436.0,1407.4" fill="#ffffff" opacity="0.69"/><polygon points="1262.0,2383.3 1214.6,2403.3 1194.6,2450.7 1174.6,2403.3 1127.2,2383.3 1174.6,2363.3 1194.6,2315.9 1214.6,2363.3" fill="#ffffff" opacity="0.68"/><polygon points="1551.1,2274.5 1514.4,2290.0 1498.9,2326.7 1483.4,2290.0 1446.7,2274.5 1483.4,2259.0 1498.9,2222.4 1514.4,2259.0" fill="#ffffff" opacity="0.78"/><polygon points="825.0,2586.8 775.6,2607.7 754.7,2657.1 733.8,2607.7 684.4,2586.8 733.8,2565.9 754.7,2516.5 775.6,2565.9" fill="#ffffff" opacity="0.70"/><polygon points="2111.5,2701.1 2065.6,2720.4 2046.3,2766.3 2026.9,2720.4 1981.0,2701.1 2026.9,2681.7 2046.3,2635.8 2065.6,2681.7" fill="#ffffff" opacity="0.74"/><polygon points="673.9,2534.3 635.6,2550.5 619.4,2588.9 603.1,2550.5 564.8,2534.3 603.1,2518.1 619.4,2479.7 635.6,2518.1" fill="#ffffff" opacity="0.73"/></svg>