<svg xmlns="http://www.w3.org/2000/svg" viewBox="0 0 2048 2732" width="2048" height="2732"><defs><linearGradient id="lg1" x1="58.7%" y1="0.8%" x2="41.3%" y2="99.2%"><stop offset="0.0%" stop-color="#fff5f8"/><stop offset="100.0%" stop-color="#ffe8f0"/></linearGradient></defs><rect x="0.0" y="0.0" width="2048.0" height="2732.0" rx="0" fill="url(#lg1)" opacity="1.00"/><path d="M 234.77053735592742 2559.6986567671656 L 296.0966300147007 2559.6986567671656 L 283.831411482946 2621.024749425939 C 351.2901134075966 2657.8204050212025, 363.5553319393513 2780.472590338749, 339.02489487584194 2780.472590338749 L 191.84227249478613 2780.472590338749 C 167.31183543127682 2780.472590338749, 179.57705396303146 2657.8204050212025, 247.03575588768206 2621.024749425939 Z" fill="#ff6b6b" opacity="0.90"/><path d="M 903.653803182017 2038.976382016 L 976.9670554501703 2038.976382016 L 962.3044049965396 2112.289634284153 C 1042.948982491508 2156.277585645045, 1057.6116329451388 2302.9040901813514, 1028.2863320378774 2302.9040901813514 L 852.3345265943098 2302.9040901813514 C 823.0092256870485 2302.9040901813514, 837.6718761406792 2156.277585645045, 918.3164536356477 2112.289634284153 Z" fill="#ffe66d" opacity="0.98"/><path d="M 1805.6678011190047 1969.9086432503484 L 1885.7500536482667 1969.9086432503484 L 1869.7336031424143 2049.9908957796106 C 1957.8240809246026 2098.0402472971678, 1973.840531430455 2258.204752355692, 1941.8076304187503 2258.204752355692 L 1749.6102243485211 2258.204752355692 C 1717.5773233368163 2258.204752355692, 1733.5937738426687 2098.0402472971678, 1821.684251624857 2049.9908957796106 Z" fill="#ff6b6b" opacity="0.86"/><path d="M 980.3596616061816 1895.3593460031545 L 1052.7227109504927 1895.3593460031545 L 1038.2501010816304 1967.7223953474656 C 1117.8494553603728 2011.1402249540522, 1132.3220652292348 2155.8663236426746, 1103.3768454915105 2155.8663236426746 L 929.7055270651638 2155.8663236426746 C 900.7603073274394 2155.8663236426746, 915.2329171963016 2011.1402249540522, 994.8322714750439 1967.7223953474656 Z" fill="#ffe66d" opacity="0.90"/><path d="M 980.0860404774502 2144.8577215095183 L 1047.023421518916 2144.8577215095183 L 1033.6359453106227 2211.7951025509838 C 1107.267064456235 2251.957531175863, 1120.654540664528 2385.8322932587944, 1093.8795882479417 2385.8322932587944 L 933.2298737484242 2385.8322932587944 C 906.4549213318379 2385.8322932587944, 919.8423975401311 2251.957531175863, 993.4735166857433 2211.7951025509838 Z" fill="#4ecdc4" opacity="0.89"/><path d="M 1777.1789997987028 530.1005334648423 L 1858.3375316933846 530.1005334648423 L 1842.1058253144483 611.2590653595244 C 1931.3802103985984 659.9541844963335, 1947.6119167775348 822.2712482856975, 1915.1485040196621 822.2712482856975 L 1720.3680274724252 822.2712482856975 C 1687.9046147145525 822.2712482856975, 1704.136321093489 659.9541844963335, 1793.410706177639 611.2590653595244 Z" fill="#ffe66d" opacity="0.91"/><path d="M 1011.0776494207649 1635.1885477386154 C 1006.1105764108926 1595.4519636596362, 1050.8142334997442 1585.5178176398913, 1070.6825255392337 1600.4190366695086 C 1090.5508175787234 1590.4848906497639, 1120.3532556379578 1615.3202556991257, 1115.3861826280854 1645.1226937583601 C 1115.3861826280854 1660.0239127879775, 1006.1105764108926 1660.0239127879775, 1011.0776494207649 1635.1885477386154 Z" fill="#ff6b6b" opacity="0.89"/><path d="M 1937.9624400134312 244.1396060864836 C 1932.3696345931642 199.3971627243485, 1982.7048833755662 188.21155188381474, 2005.0761050566339 204.9899681446154 C 2027.4473267377014 193.80435730408163, 2061.0041592593025 221.76838440541607, 2055.4113538390357 255.32521692701738 C 2055.4113538390357 272.10363318781805, 1932.3696345931642 272.10363318781805, 1937.9624400134312 244.1396060864836 Z" fill="#ff6b6b" opacity="0.89"/><path d="M 423.22335214693607 602.1854795977368 C 416.68179322767907 549.853008243681, 475.55582350099195 536.769890405167, 501.72205917801983 556.394567162938 C 527.8882948550478 543.311449324424, 567.1376483705897 576.019243920709, 560.5960894513328 615.2685974362508 C 560.5960894513328 634.8932741940217, 416.68179322767907 634.8932741940217, 423.22335214693607 602.1854795977368 Z" fill="#4ecdc4" opacity="0.87"/><path d="M 309.72612071988203 664.3478638030239 C 303.747534563151 616.5191745491757, 357.55480997373024 604.5620022357136, 381.4691546006543 622.4977607059067 C 405.3834992275784 610.5405883924446, 441.2550161679645 640.4335191760998, 435.2764300112335 676.3050361164859 C 435.2764300112335 694.240794586679, 303.747534563151 694.240794586679, 309.72612071988203 664.3478638030239 Z" fill="#4ecdc4" opacity="0.92"/><path d="M 1666.094178172507 1182.6331768364469 C 1660.476660584471 1137.6930361321565, 1711.0343188767974 1126.4580009560839, 1733.5043892289427 1143.3105537201927 C 1755.9744595810878 1132.07551854412, 1789.6795651093057 1160.1631064843016, 1784.0620475212693 1193.8682120125195 C 1784.0620475212693 1210.7207647766284, 1660.476660584471 1210.7207647766284, 1666.094178172507 1182.6331768364469 Z" fill="#ffe66d" opacity="0.87"/><path d="M 1335.8950307802284 2709.416802985814 C 1329.335628041705 2656.9415810776272, 1388.370252688415 2643.8227756005804, 1414.6078636425082 2663.5009838161504 C 1440.8454745966014 2650.382178339104, 1480.2018910277413 2683.1791920317205, 1473.6424882892181 2722.5356084628606 C 1473.6424882892181 2742.2138166784302, 1329.335628041705 2742.2138166784302, 1335.8950307802284 2709.416802985814 Z" fill="#ff6b6b" opacity="0.90"/><g><rect x="121.7" y="1653.6" width="119.5" height="93.0" rx="13.2805506403947" fill="#ffe66d" opacity="0.95"/><path d="M 141.59200726999853 1653.5757485500906 C 141.59200726999853 1593.8132706683145, 221.27531111236675 1593.8132706683145, 221.27531111236675 1653.5757485500906" fill="none" stroke="#ffe66d" stroke-width="13.3" opacity="0.95"/><circle cx="181.4" cy="1693.4" r="10.6" fill="#ffe066" opacity="0.95"/></g><g><rect x="1635.6" y="35.6" width="122.4" height="95.2" rx="13.60233252075156" fill="#ff6b6b" opacity="0.94"/><path d="M 1655.9955439591147 35.64860834494253 C 1655.9955439591147 -25.561887998439488, 1737.6095390836242 -25.561887998439488, 1737.6095390836242 35.64860834494253" fill="none" stroke="#ff6b6b" stroke-width="13.6" opacity="0.94"/><circle cx="1696.8" cy="76.5" r="10.9" fill="#ffe066" opacity="0.94"/></g><g><rect x="1168.3" y="148.3" width="92.4" height="71.9" rx="10.264661469269605" fill="#4ecdc4" opacity="0.86"/><path d="M 1183.6991046795497 148.3294029450642 C 1183.6991046795497 102.13842633335099, 1245.2870734951675 102.13842633335099, 1245.2870734951675 148.3294029450642" fill="none" stroke="#4ecdc4" stroke-width="10.3" opacity="0.86"/><circle cx="1214.5" cy="179.1" r="8.2" fill="#ffe066" opacity="0.86"/></g><g><rect x="1116.6" y="578.7" width="113.7" height="88.4" rx="12.631256784068079" fill="#4ecdc4" opacity="0.85"/><path d="M 1135.5858075612869 578.6912563451386 C 1135.5858075612869 521.8506008168323, 1211.3733482656953 521.8506008168323, 1211.3733482656953 578.6912563451386" fill="none" stroke="#4ecdc4" stroke-width="12.6" opacity="0.85"/><circle cx="1173.5" cy="616.6" r="10.1" fill="#ffe066" opacity="0.85"/></g><g><rect x="1169.0" y="982.8" width="128.2" height="99.7" rx="14.239950537784996" fill="#ffe66d" opacity="0.98"/><path d="M 1190.385867154689 982.8219066637778 C 1190.385867154689 918.7421292437454, 1275.8255703813993 918.7421292437454, 1275.8255703813993 982.8219066637778" fill="none" stroke="#ffe66d" stroke-width="14.2" opacity="0.98"/><circle cx="1233.1" cy="1025.5" r="11.4" fill="#ffe066" opacity="0.98"/></g><polygon points="1613.8,1948.9 1587.4,1938.9 1570.3,1961.4 1580.3,1935.0 1557.9,1917.9 1584.3,1927.9 1601.4,1905.4 1591.4,1931.8" fill="#ffffff" opacity="0.97"/><polygon points="1378.2,1665.3 1426.4,1638.5 1414.5,1584.6 1441.3,1632.8 1495.1,1620.9 1446.9,1647.7 1458.8,1701.6 1432.0,1653.4" fill="#ffffff" opacity="0.98"/><polygon points="383.9,2581.3 369.9,2635.8 418.0,2664.8 363.6,2650.7 334.6,2698.9 348.6,2644.5 300.5,2615.5 354.9,2629.5" fill="#ffffff" opacity="0.94"/><polygon points="1422.4,2447.1 1450.9,2473.1 1483.9,2453.2 1457.9,2481.7 1477.8,2514.6 1449.3,2488.7 1416.4,2508.6 1442.3,2480.1" fill="#ffffff" opacity="0.94"/><polygon points="89.0,629.5 84.2,601.1 55.6,597.7 84.0,592.8 87.5,564.3 92.3,592.7 120.9,596.1 92.5,601.0" fill="#ffffff" opacity="0.91"/><polygon points="37.3,1428.6 47.5,1474.3 94.3,1477.6 48.5,1487.8 45.2,1534.6 35.0,1488.8 -11.7,1485.5 34.0,1475.3" fill="#ffffff" opacity="0.91"/><polygon points="117.9,2265.4 116.6,2307.3 156.3,2320.4 114.5,2319.2 101.3,2358.9 102.6,2317.1 62.8,2303.9 104.7,2305.2" fill="#ffffff" opacity="0.92"/><polygon points="1962.6,2665.7 1955.1,2614.4 1903.7,2607.0 1955.0,2599.4 1962.4,2548.0 1970.0,2599.3 2021.4,2606.8 1970.0,2614.3" fill="#ffffff" opacity="0.91"/><polygon points="1742.3,524.5 1732.5,562.2 1765.9,582.3 1728.2,572.6 1708.1,606.0 1717.8,568.3 1684.5,548.2 1722.2,557.9" fill="#ffffff" opacity="0.94"/><polygon points="1922.1,849.8 1954.6,887.3 1999.8,866.9 1962.3,899.4 1982.8,944.6 1950.3,907.1 1905.0,927.6 1942.5,895.1" fill="#ffffff" opacity="0.98"/><polygon points="1706.4,1682.9 1688.1,1635.3 1637.3,1639.3 1684.9,1621.0 1680.9,1570.1 1699.2,1617.7 1750.1,1613.8 1702.5,1632.1" fill="#ffffff" opacity="0.98"/><polygon points="1034.5,2158.5 1009.0,2137.7 981.9,2156.3 1002.6,2130.8 984.1,2103.6 1009.6,2124.3 1036.7,2105.8 1016.0,2131.3" fill="#ffffff" opacity="0.92"/><polygon points="1429.5,2304.3 1408.6,2267.0 1366.8,2276.3 1404.2,2255.4 1394.8,2213.6 1415.7,2251.0 1457.5,2241.6 1420.1,2262.5" fill="#ffffff" opacity="0.89"/><polygon points="1053.9,1383.5 1036.4,1347.8 997.2,1354.5 1032.8,1336.9 1026.2,1297.8 1043.7,1333.4 1082.9,1326.7 1047.3,1344.3" fill="#ffffff" opacity="0.85"/></svg>