<svg xmlns="http://www.w3.org/2000/svg" viewBox="0 0 2048 2732" width="2048" height="2732"><defs><linearGradient id="lg1" x1="58.7%" y1="0.8%" x2="41.3%" y2="99.2%"><stop offset="0.0%" stop-color="#d8f3dc"/><stop offset="100.0%" stop-color="#b7e4c7"/></linearGradient></defs><rect x="0.0" y="0.0" width="2048.0" height="2732.0" rx="0" fill="url(#lg1)" opacity="1.00"/><g><rect x="453.0" y="2064.6" width="70.0" height="490.3" rx="0" fill="#6b4423" opacity="0.96"/><circle cx="488.0" cy="1924.6" r="245.1" fill="#e76f51" opacity="0.87"/><rect x="295.4" y="2204.7" width="385.2" height="157.6" rx="21.012174413334996" fill="#a0522d" opacity="0.96"/><polygon points="277.9,2204.7 698.1,2204.7 488.0,2082.2" fill="#8a5a2b" opacity="0.96"/><rect x="460.0" y="2362.3" width="21.0" height="42.0" rx="0" fill="#a0522d" opacity="0.96"/><rect x="495.0" y="2362.3" width="21.0" height="42.0" rx="0" fill="#a0522d" opacity="0.96"/></g><g><rect x="143.9" y="1887.4" width="70.6" height="494.3" rx="0" fill="#6b4423" opacity="0.90"/><circle cx="179.2" cy="1746.2" r="247.2" fill="#e76f51" opacity="0.81"/><rect x="-15.0" y="2028.6" width="388.4" height="158.9" rx="21.185266587067105" fill="#a0522d" opacity="0.90"/><polygon points="-32.6,2028.6 391.1,2028.6 179.2,1905.1" fill="#8a5a2b" opacity="0.90"/><rect x="151.0" y="2187.5" width="21.2" height="42.4" rx="0" fill="#a0522d" opacity="0.90"/><rect x="186.3" y="2187.5" width="21.2" height="42.4" rx="0" fill="#a0522d" opacity="0.90"/></g><g><rect x="416.2" y="2120.2" width="58.5" height="409.2" rx="0" fill="#6b4423" opacity="0.99"/><circle cx="445.4" cy="2003.3" r="204.6" fill="#e76f51" opacity="0.89"/><rect x="284.7" y="2237.1" width="321.5" height="131.5" rx="17.535500752568733" fill="#a0522d" opacity="0.99"/><polygon points="270.1,2237.1 620.8,2237.1 445.4,2134.8" fill="#8a5a2b" opacity="0.99"/><rect x="422.1" y="2368.6" width="17.5" height="35.1" rx="0" fill="#a0522d" opacity="0.99"/><rect x="451.3" y="2368.6" width="17.5" height="35.1" rx="0" fill="#a0522d" opacity="0.99"/></g><g><rect x="1618.7" y="177.5" width="65.2" height="456.5" rx="0" fill="#6b4423" opacity="0.87"/><circle cx="1651.3" cy="47.1" r="228.2" fill="#e76f51" opacity="0.78"/><rect x="1472.0" y="307.9" width="358.6" height="146.7" rx="19.562466544167233" fill="#a0522d" opacity="0.87"/><polygon points="1455.7,307.9 1846.9,307.9 1651.3,193.8" fill="#8a5a2b" opacity="0.87"/><rect x="1625.2" y="454.6" width="19.6" height="39.1" rx="0" fill="#a0522d" opacity="0.87"/><rect x="1657.8" y="454.6" width="19.6" height="39.1" rx="0" fill="#a0522d" opacity="0.87"/></g></svg>