<svg xmlns="http://www.w3.org/2000/svg" viewBox="0 0 2048 2732" width="2048" height="2732"><defs><linearGradient id="lg1" x1="58.7%" y1="0.8%" x2="41.3%" y2="99.2%"><stop offset="0.0%" stop-color="#eaf6ff"/><stop offset="100.0%" stop-color="#cdeffd"/></linearGradient></defs><rect x="0.0" y="0.0" width="2048.0" height="2732.0" rx="0" fill="url(#lg1)" opacity="1.00"/><g><ellipse cx="1386.7" cy="879.5" rx="43.9" ry="97.5" fill="#8a5a2b" opacity="0.86" transform="rotate(8 1386.7026235805145 879.4542341693431)"/><ellipse cx="1654.8" cy="879.5" rx="43.9" ry="97.5" fill="#8a5a2b" opacity="0.86" transform="rotate(-8 1654.8006526916886 879.4542341693431)"/><circle cx="1520.8" cy="879.5" r="146.2" fill="#6b4423" opacity="0.86"/><path d="M 1374.5 855.1 A 146.2 146.2 0 0 1 1545.1 738.1 L 1496.4 830.7 Z" fill="#8a5a2b" opacity="0.86"/><circle cx="1467.1" cy="867.3" r="19.5" fill="#2b2b2b" opacity="0.86"/><circle cx="1574.4" cy="867.3" r="19.5" fill="#2b2b2b" opacity="0.86"/><ellipse cx="1520.8" cy="928.2" rx="29.2" ry="21.9" fill="#2b2b2b" opacity="0.86"/></g><g><ellipse cx="156.2" cy="226.8" rx="41.3" ry="91.8" fill="#8a5a2b" opacity="0.96" transform="rotate(8 156.19564291313085 226.75248678836664)"/><ellipse cx="408.6" cy="226.8" rx="41.3" ry="91.8" fill="#8a5a2b" opacity="0.96" transform="rotate(-8 408.57581551724445 226.75248678836664)"/><circle cx="282.4" cy="226.8" r="137.7" fill="#6b4423" opacity="0.96"/><path d="M 144.7 203.8 A 137.7 137.7 0 0 1 305.3 93.7 L 259.4 180.9 Z" fill="#8a5a2b" opacity="0.96"/><circle cx="231.9" cy="215.3" r="18.4" fill="#2b2b2b" opacity="0.96"/><circle cx="332.9" cy="215.3" r="18.4" fill="#2b2b2b" opacity="0.96"/><ellipse cx="282.4" cy="272.6" rx="27.5" ry="20.6" fill="#2b2b2b" opacity="0.96"/></g><g><g><ellipse cx="889.2" cy="2165.1" rx="80.7" ry="51.3" fill="#6b4423" opacity="0.86"/><circle cx="830.5" cy="2172.4" r="46.9" fill="#6b4423" opacity="0.86"/><circle cx="881.9" cy="2135.7" r="58.7" fill="#6b4423" opacity="0.86"/><circle cx="947.9" cy="2172.4" r="51.3" fill="#6b4423" opacity="0.86"/><circle cx="999.2" cy="2182.7" r="36.7" fill="#6b4423" opacity="0.86"/></g><circle cx="889.2" cy="2180.7" r="117.4" fill="#6b4423" opacity="0.86"/><circle cx="846.2" cy="2170.9" r="15.6" fill="#2b2b2b" opacity="0.86"/><circle cx="932.2" cy="2170.9" r="15.6" fill="#2b2b2b" opacity="0.86"/><ellipse cx="889.2" cy="2219.8" rx="23.5" ry="17.6" fill="#2b2b2b" opacity="0.86"/></g><g><g><ellipse cx="990.4" cy="1093.9" rx="86.2" ry="54.9" fill="#6b4423" opacity="0.93"/><circle cx="927.7" cy="1101.7" r="50.2" fill="#6b4423" opacity="0.93"/><circle cx="982.6" cy="1062.5" r="62.7" fill="#6b4423" opacity="0.93"/><circle cx="1053.1" cy="1101.7" r="54.9" fill="#6b4423" opacity="0.93"/><circle cx="1108.0" cy="1112.7" r="39.2" fill="#6b4423" opacity="0.93"/></g><circle cx="990.4" cy="1110.6" r="125.4" fill="#6b4423" opacity="0.93"/><circle cx="944.4" cy="1100.1" r="16.7" fill="#2b2b2b" opacity="0.93"/><circle cx="1036.4" cy="1100.1" r="16.7" fill="#2b2b2b" opacity="0.93"/><ellipse cx="990.4" cy="1152.4" rx="25.1" ry="18.8" fill="#2b2b2b" opacity="0.93"/></g><g><ellipse cx="463.5" cy="2129.7" rx="31.1" ry="66.1" fill="#6b4423" opacity="0.99" transform="rotate(10 463.4547827420551 2129.6799308373033)"/><ellipse cx="657.9" cy="2129.7" rx="31.1" ry="66.1" fill="#6b4423" opacity="0.99" transform="rotate(-10 657.8684131428408 2129.6799308373033)"/><circle cx="560.7" cy="2149.1" r="116.6" fill="#6b4423" opacity="0.99"/><circle cx="517.9" cy="2139.4" r="15.6" fill="#2b2b2b" opacity="0.99"/><circle cx="603.4" cy="2139.4" r="15.6" fill="#2b2b2b" opacity="0.99"/><ellipse cx="560.7" cy="2188.0" rx="23.3" ry="17.5" fill="#2b2b2b" opacity="0.99"/></g><g><polygon points="170.8,1347.3 227.6,1347.3 199.2,1262.0" fill="#6b4423" opacity="0.95"/><polygon points="398.2,1347.3 341.3,1347.3 369.7,1262.0" fill="#6b4423" opacity="0.95"/><circle cx="284.5" cy="1423.1" r="113.7" fill="#6b4423" opacity="0.95"/><circle cx="242.8" cy="1413.6" r="15.2" fill="#2b2b2b" opacity="0.95"/><circle cx="326.2" cy="1413.6" r="15.2" fill="#2b2b2b" opacity="0.95"/><ellipse cx="284.5" cy="1461.0" rx="22.7" ry="17.1" fill="#2b2b2b" opacity="0.95"/></g></svg>