<svg xmlns="http://www.w3.org/2000/svg" viewBox="0 0 2048 2732" width="2048" height="2732"><defs><linearGradient id="lg1" x1="58.7%" y1="0.8%" x2="41.3%" y2="99.2%"><stop offset="0.0%" stop-color="#eaf7ff"/><stop offset="100.0%" stop-color="#dff3ff"/></linearGradient></defs><rect x="0.0" y="0.0" width="2048.0" height="2732.0" rx="0" fill="url(#lg1)" opacity="1.00"/><g><g><ellipse cx="1092.5" cy="1313.7" rx="92.0" ry="58.5" fill="#f8f9fa" opacity="0.90"/><circle cx="1025.6" cy="1322.1" r="53.5" fill="#f8f9fa" opacity="0.90"/><circle cx="1084.1" cy="1280.2" r="66.9" fill="#f8f9fa" opacity="0.90"/><circle cx="1159.4" cy="1322.1" r="58.5" fill="#f8f9fa" opacity="0.90"/><circle cx="1217.9" cy="1333.8" r="41.8" fill="#f8f9fa" opacity="0.90"/></g><circle cx="953.1" cy="1317.4" r="40.9" fill="#4a4a4a" opacity="0.90"/><circle cx="940.1" cy="1304.4" r="7.4" fill="#1a1a1a" opacity="0.90"/><rect x="1018.1" y="1365.7" width="14.9" height="40.9" rx="3" fill="#4a4a4a" opacity="0.90"/><rect x="1092.5" y="1365.7" width="14.9" height="40.9" rx="3" fill="#4a4a4a" opacity="0.90"/><rect x="1185.4" y="1365.7" width="14.9" height="40.9" rx="3" fill="#4a4a4a" opacity="0.90"/></g><g><g><ellipse cx="1840.9" cy="8.3" rx="99.7" ry="63.4" fill="#f8f9fa" opacity="0.97"/><circle cx="1768.4" cy="17.4" r="58.0" fill="#f8f9fa" opacity="0.97"/><circle cx="1831.8" cy="-28.0" r="72.5" fill="#f8f9fa" opacity="0.97"/><circle cx="1913.4" cy="17.4" r="63.4" fill="#f8f9fa" opacity="0.97"/><circle cx="1976.8" cy="30.0" r="45.3" fill="#f8f9fa" opacity="0.97"/></g><circle cx="1689.8" cy="12.3" r="44.3" fill="#4a4a4a" opacity="0.97"/><circle cx="1675.7" cy="-1.8" r="8.1" fill="#1a1a1a" opacity="0.97"/><rect x="1760.3" y="64.7" width="16.1" height="44.3" rx="3" fill="#4a4a4a" opacity="0.97"/><rect x="1840.9" y="64.7" width="16.1" height="44.3" rx="3" fill="#4a4a4a" opacity="0.97"/><rect x="1941.6" y="64.7" width="16.1" height="44.3" rx="3" fill="#4a4a4a" opacity="0.97"/></g><g><g><ellipse cx="516.6" cy="923.8" rx="91.2" ry="58.0" fill="#f8f9fa" opacity="0.90"/><circle cx="450.2" cy="932.1" r="53.1" fill="#f8f9fa" opacity="0.90"/><circle cx="508.3" cy="890.6" r="66.3" fill="#f8f9fa" opacity="0.90"/><circle cx="582.9" cy="932.1" r="58.0" fill="#f8f9fa" opacity="0.90"/><circle cx="640.9" cy="943.7" r="41.5" fill="#f8f9fa" opacity="0.90"/></g><circle cx="378.4" cy="927.5" r="40.5" fill="#4a4a4a" opacity="0.90"/><circle cx="365.5" cy="914.6" r="7.4" fill="#1a1a1a" opacity="0.90"/><rect x="442.9" y="975.4" width="14.7" height="40.5" rx="3" fill="#4a4a4a" opacity="0.90"/><rect x="516.6" y="975.4" width="14.7" height="40.5" rx="3" fill="#4a4a4a" opacity="0.90"/><rect x="608.7" y="975.4" width="14.7" height="40.5" rx="3" fill="#4a4a4a" opacity="0.90"/></g><g><g><ellipse cx="694.8" cy="492.2" rx="90.9" ry="57.9" fill="#f8f9fa" opacity="0.97"/><circle cx="628.7" cy="500.5" r="52.9" fill="#f8f9fa" opacity="0.97"/><circle cx="686.5" cy="459.2" r="66.1" fill="#f8f9fa" opacity="0.97"/><circle cx="760.9" cy="500.5" r="57.9" fill="#f8f9fa" opacity="0.97"/><circle cx="818.8" cy="512.1" r="41.3" fill="#f8f9fa" opacity="0.97"/></g><circle cx="557.0" cy="495.9" r="40.4" fill="#4a4a4a" opacity="0.97"/><circle cx="544.2" cy="483.0" r="7.3" fill="#1a1a1a" opacity="0.97"/><rect x="621.3" y="543.7" width="14.7" height="40.4" rx="3" fill="#4a4a4a" opacity="0.97"/><rect x="694.8" y="543.7" width="14.7" height="40.4" rx="3" fill="#4a4a4a" opacity="0.97"/><rect x="786.6" y="543.7" width="14.7" height="40.4" rx="3" fill="#4a4a4a" opacity="0.97"/></g><g><g><ellipse cx="1213.3" cy="1145.0" rx="103.2" ry="65.7" fill="#f8f9fa" opacity="0.87"/><circle cx="1138.2" cy="1154.4" r="60.0" fill="#f8f9fa" opacity="0.87"/><circle cx="1203.9" cy="1107.5" r="75.0" fill="#f8f9fa" opacity="0.87"/><circle cx="1288.3" cy="1154.4" r="65.7" fill="#f8f9fa" opacity="0.87"/><circle cx="1354.0" cy="1167.6" r="46.9" fill="#f8f9fa" opacity="0.87"/></g><circle cx="1056.9" cy="1149.2" r="45.9" fill="#4a4a4a" opacity="0.87"/><circle cx="1042.3" cy="1134.6" r="8.3" fill="#1a1a1a" opacity="0.87"/><rect x="1129.9" y="1203.4" width="16.7" height="45.9" rx="3" fill="#4a4a4a" opacity="0.87"/><rect x="1213.3" y="1203.4" width="16.7" height="45.9" rx="3" fill="#4a4a4a" opacity="0.87"/><rect x="1317.5" y="1203.4" width="16.7" height="45.9" rx="3" fill="#4a4a4a" opacity="0.87"/></g><g><g><ellipse cx="1157.1" cy="1170.5" rx="103.4" ry="65.8" fill="#f8f9fa" opacity="0.88"/><circle cx="1081.9" cy="1179.9" r="60.2" fill="#f8f9fa" opacity="0.88"/><circle cx="1147.7" cy="1132.8" r="75.2" fill="#f8f9fa" opacity="0.88"/><circle cx="1232.3" cy="1179.9" r="65.8" fill="#f8f9fa" opacity="0.88"/><circle cx="1298.2" cy="1193.0" r="47.0" fill="#f8f9fa" opacity="0.88"/></g><circle cx="1000.4" cy="1174.6" r="46.0" fill="#4a4a4a" opacity="0.88"/><circle cx="985.8" cy="1160.0" r="8.4" fill="#1a1a1a" opacity="0.88"/><rect x="1073.5" y="1229.0" width="16.7" height="46.0" rx="3" fill="#4a4a4a" opacity="0.88"/><rect x="1157.1" y="1229.0" width="16.7" height="46.0" rx="3" fill="#4a4a4a" opacity="0.88"/><rect x="1261.6" y="1229.0" width="16.7" height="46.0" rx="3" fill="#4a4a4a" opacity="0.88"/></g><g><g><ellipse cx="1235.9" cy="199.1" rx="87.9" ry="55.9" fill="#f8f9fa" opacity="0.95"/><circle cx="1172.0" cy="207.0" r="51.1" fill="#f8f9fa" opacity="0.95"/><circle cx="1227.9" cy="167.1" r="63.9" fill="#f8f9fa" opacity="0.95"/><circle cx="1299.8" cy="207.0" r="55.9" fill="#f8f9fa" opacity="0.95"/><circle cx="1355.7" cy="218.2" r="39.9" fill="#f8f9fa" opacity="0.95"/></g><circle cx="1102.8" cy="202.6" r="39.1" fill="#4a4a4a" opacity="0.95"/><circle cx="1090.4" cy="190.2" r="7.1" fill="#1a1a1a" opacity="0.95"/><rect x="1164.9" y="248.8" width="14.2" height="39.1" rx="3" fill="#4a4a4a" opacity="0.95"/><rect x="1235.9" y="248.8" width="14.2" height="39.1" rx="3" fill="#4a4a4a" opacity="0.95"/><rect x="1324.7" y="248.8" width="14.2" height="39.1" rx="3" fill="#4a4a4a" opacity="0.95"/></g><g><g><ellipse cx="502.8" cy="1813.2" rx="80.8" ry="51.4" fill="#f8f9fa" opacity="0.97"/><circle cx="444.1" cy="1820.6" r="47.0" fill="#f8f9fa" opacity="0.97"/><circle cx="495.5" cy="1783.8" r="58.8" fill="#f8f9fa" opacity="0.97"/><circle cx="561.6" cy="1820.6" r="51.4" fill="#f8f9fa" opacity="0.97"/><circle cx="613.0" cy="1830.8" r="36.7" fill="#f8f9fa" opacity="0.97"/></g><circle cx="380.4" cy="1816.5" r="35.9" fill="#4a4a4a" opacity="0.97"/><circle cx="369.0" cy="1805.1" r="6.5" fill="#1a1a1a" opacity="0.97"/><rect x="437.5" y="1858.9" width="13.1" height="35.9" rx="3" fill="#4a4a4a" opacity="0.97"/><rect x="502.8" y="1858.9" width="13.1" height="35.9" rx="3" fill="#4a4a4a" opacity="0.97"/><rect x="584.4" y="1858.9" width="13.1" height="35.9" rx="3" fill="#4a4a4a" opacity="0.97"/></g></svg>