<svg xmlns="http://www.w3.org/2000/svg" viewBox="0 0 2048 2732" width="2048" height="2732"><defs><linearGradient id="lg1" x1="58.7%" y1="0.8%" x2="41.3%" y2="99.2%"><stop offset="0.0%" stop-color="#eaf6ff"/><stop offset="100.0%" stop-color="#d6efff"/></linearGradient></defs><rect x="0.0" y="0.0" width="2048.0" height="2732.0" rx="0" fill="url(#lg1)" opacity="1.00"/><g><polygon points="149.1,2416.6 248.1,2416.6 186.2,2280.5" fill="#ffffff" opacity="0.88"/><polygon points="495.6,2416.6 396.6,2416.6 458.4,2280.5" fill="#ffffff" opacity="0.88"/><polygon points="178.8,2396.8 223.4,2396.8 193.7,2317.6" fill="#e8e8ea" opacity="0.88"/><polygon points="465.9,2396.8 421.3,2396.8 451.0,2317.6" fill="#e8e8ea" opacity="0.88"/><circle cx="322.3" cy="2515.6" r="160.8" fill="#ffffff" opacity="0.88"/><circle cx="260.5" cy="2490.8" r="19.8" fill="#2b2b2b" opacity="0.88"/><circle cx="384.2" cy="2490.8" r="19.8" fill="#2b2b2b" opacity="0.88"/><ellipse cx="322.3" cy="2552.7" rx="24.7" ry="17.3" fill="#2b2b2b" opacity="0.88"/></g><g><polygon points="303.5,1297.9 409.9,1297.9 343.4,1151.5" fill="#ffffff" opacity="0.92"/><polygon points="676.0,1297.9 569.5,1297.9 636.1,1151.5" fill="#ffffff" opacity="0.92"/><polygon points="335.4,1276.6 383.3,1276.6 351.3,1191.4" fill="#e8e8ea" opacity="0.92"/><polygon points="644.1,1276.6 596.2,1276.6 628.1,1191.4" fill="#e8e8ea" opacity="0.92"/><circle cx="489.7" cy="1404.3" r="173.0" fill="#ffffff" opacity="0.92"/><circle cx="423.2" cy="1377.7" r="21.3" fill="#2b2b2b" opacity="0.92"/><circle cx="556.2" cy="1377.7" r="21.3" fill="#2b2b2b" opacity="0.92"/><ellipse cx="489.7" cy="1444.2" rx="26.6" ry="18.6" fill="#2b2b2b" opacity="0.92"/></g><g><polygon points="1758.7,1784.4 1859.0,1784.4 1796.3,1646.5" fill="#ffffff" opacity="0.97"/><polygon points="2109.7,1784.4 2009.4,1784.4 2072.1,1646.5" fill="#ffffff" opacity="0.97"/><polygon points="1788.8,1764.3 1833.9,1764.3 1803.9,1684.1" fill="#e8e8ea" opacity="0.97"/><polygon points="2079.6,1764.3 2034.5,1764.3 2064.6,1684.1" fill="#e8e8ea" opacity="0.97"/><circle cx="1934.2" cy="1884.7" r="163.0" fill="#ffffff" opacity="0.97"/><circle cx="1871.6" cy="1859.6" r="20.1" fill="#2b2b2b" opacity="0.97"/><circle cx="1996.9" cy="1859.6" r="20.1" fill="#2b2b2b" opacity="0.97"/><ellipse cx="1934.2" cy="1922.3" rx="25.1" ry="17.5" fill="#2b2b2b" opacity="0.97"/></g><g><polygon points="412.1,278.3 519.8,278.3 452.5,130.1" fill="#ffffff" opacity="0.94"/><polygon points="789.2,278.3 681.5,278.3 748.8,130.1" fill="#ffffff" opacity="0.94"/><polygon points="444.4,256.7 492.9,256.7 460.6,170.5" fill="#e8e8ea" opacity="0.94"/><polygon points="756.9,256.7 708.4,256.7 740.7,170.5" fill="#e8e8ea" opacity="0.94"/><circle cx="600.7" cy="386.1" r="175.1" fill="#ffffff" opacity="0.94"/><circle cx="533.3" cy="359.1" r="21.6" fill="#2b2b2b" opacity="0.94"/><circle cx="668.0" cy="359.1" r="21.6" fill="#2b2b2b" opacity="0.94"/><ellipse cx="600.7" cy="426.5" rx="26.9" ry="18.9" fill="#2b2b2b" opacity="0.94"/></g><g><polygon points="1241.5,92.2 1346.4,92.2 1280.9,-51.9" fill="#ffffff" opacity="0.98"/><polygon points="1608.5,92.2 1503.6,92.2 1569.1,-51.9" fill="#ffffff" opacity="0.98"/><polygon points="1273.0,71.2 1320.2,71.2 1288.7,-12.6" fill="#e8e8ea" opacity="0.98"/><polygon points="1577.0,71.2 1529.8,71.2 1561.3,-12.6" fill="#e8e8ea" opacity="0.98"/><circle cx="1425.0" cy="197.0" r="170.4" fill="#ffffff" opacity="0.98"/><circle cx="1359.5" cy="170.8" r="21.0" fill="#2b2b2b" opacity="0.98"/><circle cx="1490.5" cy="170.8" r="21.0" fill="#2b2b2b" opacity="0.98"/><ellipse cx="1425.0" cy="236.3" rx="26.2" ry="18.3" fill="#2b2b2b" opacity="0.98"/></g></svg>