<svg xmlns="http://www.w3.org/2000/svg" viewBox="0 0 2048 2732" width="2048" height="2732"><defs><linearGradient id="lg1" x1="58.7%" y1="0.8%" x2="41.3%" y2="99.2%"><stop offset="0.0%" stop-color="#d8f3dc"/><stop offset="100.0%" stop-color="#b7e4c7"/></linearGradient></defs><rect x="0.0" y="0.0" width="2048.0" height="2732.0" rx="0" fill="url(#lg1)" opacity="1.00"/><g><rect x="936.3" y="2220.3" width="73.2" height="264.4" rx="36.614208926980936" fill="#52b788" opacity="0.91"/><rect x="861.0" y="2301.7" width="65.1" height="142.4" rx="32.54596349064972" fill="#52b788" opacity="0.91"/><rect x="1019.7" y="2261.0" width="65.1" height="142.4" rx="32.54596349064972" fill="#52b788" opacity="0.91"/><circle cx="972.9" cy="2210.2" r="10.2" fill="#ffb703" opacity="0.91"/><circle cx="948.5" cy="2281.4" r="10.2" fill="#ffb703" opacity="0.91"/></g><g><rect x="819.8" y="653.5" width="79.3" height="286.3" rx="39.64817992625328" fill="#52b788" opacity="0.94"/><rect x="738.3" y="741.6" width="70.5" height="154.2" rx="35.242826601114025" fill="#52b788" opacity="0.94"/><rect x="910.1" y="697.5" width="70.5" height="154.2" rx="35.242826601114025" fill="#52b788" opacity="0.94"/><circle cx="859.4" cy="642.5" r="11.0" fill="#ffb703" opacity="0.94"/><circle cx="833.0" cy="719.6" r="11.0" fill="#ffb703" opacity="0.94"/></g><g><rect x="1692.1" y="2210.8" width="87.2" height="314.8" rx="43.592967203927024" fill="#52b788" opacity="0.92"/><rect x="1602.5" y="2307.6" width="77.5" height="169.5" rx="38.749304181268464" fill="#52b788" opacity="0.92"/><rect x="1791.4" y="2259.2" width="77.5" height="169.5" rx="38.749304181268464" fill="#52b788" opacity="0.92"/><circle cx="1735.7" cy="2198.7" r="12.1" fill="#ffb703" opacity="0.92"/><circle cx="1706.6" cy="2283.4" r="12.1" fill="#ffb703" opacity="0.92"/></g><g><rect x="-12.7" y="2022.1" width="67.4" height="243.5" rx="33.71591108595759" fill="#52b788" opacity="0.95"/><rect x="-82.0" y="2097.0" width="59.9" height="131.1" rx="29.96969874307342" fill="#52b788" opacity="0.95"/><rect x="64.1" y="2059.6" width="59.9" height="131.1" rx="29.96969874307342" fill="#52b788" opacity="0.95"/><circle cx="21.0" cy="2012.7" r="9.4" fill="#ffb703" opacity="0.95"/><circle cx="-1.5" cy="2078.3" r="9.4" fill="#ffb703" opacity="0.95"/></g><g><rect x="1502.6" y="2372.6" width="90.3" height="326.3" rx="45.1740282367131" fill="#52b788" opacity="0.94"/><rect x="1409.8" y="2473.0" width="80.3" height="175.7" rx="40.1546917659672" fill="#52b788" opacity="0.94"/><rect x="1605.5" y="2422.8" width="80.3" height="175.7" rx="40.1546917659672" fill="#52b788" opacity="0.94"/><circle cx="1547.8" cy="2360.0" r="12.5" fill="#ffb703" opacity="0.94"/><circle cx="1517.7" cy="2447.9" r="12.5" fill="#ffb703" opacity="0.94"/></g><g><rect x="236.3" y="86.1" width="79.7" height="287.9" rx="39.85909272054301" fill="#52b788" opacity="0.88"/><rect x="154.4" y="174.6" width="70.9" height="155.0" rx="35.430304640482674" fill="#52b788" opacity="0.88"/><rect x="327.1" y="130.3" width="70.9" height="155.0" rx="35.430304640482674" fill="#52b788" opacity="0.88"/><circle cx="276.2" cy="75.0" r="11.1" fill="#ffb703" opacity="0.88"/><circle cx="249.6" cy="152.5" r="11.1" fill="#ffb703" opacity="0.88"/></g></svg>