<svg xmlns="http://www.w3.org/2000/svg" viewBox="0 0 2048 2732" width="2048" height="2732"><defs><linearGradient id="lg1" x1="58.7%" y1="0.8%" x2="41.3%" y2="99.2%"><stop offset="0.0%" stop-color="#f3e8ff"/><stop offset="100.0%" stop-color="#eae4ff"/></linearGradient></defs><rect x="0.0" y="0.0" width="2048.0" height="2732.0" rx="0" fill="url(#lg1)" opacity="1.00"/><g><circle cx="334.1" cy="956.4" r="54.7" fill="#ffe0c2" opacity="0.95"/><path d="M 160.2 1254.6 Q 334.1 1105.5 508.0 1254.6 Q 334.1 1204.9 160.2 1254.6 Z" fill="#ffe066" opacity="0.95"/><rect x="314.3" y="1011.1" width="39.7" height="111.8" rx="0" fill="#ffe0c2" opacity="0.95"/></g><g><circle cx="2007.9" cy="-67.1" r="65.5" fill="#ffe0c2" opacity="0.89"/><path d="M 1799.5 290.2 Q 2007.9 111.5 2216.3 290.2 Q 2007.9 230.6 1799.5 290.2 Z" fill="#ffe066" opacity="0.89"/><rect x="1984.1" y="-1.6" width="47.6" height="134.0" rx="0" fill="#ffe0c2" opacity="0.89"/></g><g><circle cx="240.2" cy="1288.8" r="48.6" fill="#ffe0c2" opacity="0.88"/><path d="M 85.6 1553.8 Q 240.2 1421.3 394.7 1553.8 Q 240.2 1509.6 85.6 1553.8 Z" fill="#ffe066" opacity="0.88"/><rect x="222.5" y="1337.4" width="35.3" height="99.3" rx="0" fill="#ffe0c2" opacity="0.88"/></g><g><circle cx="1746.4" cy="1846.2" r="47.3" fill="#ffe0c2" opacity="0.91"/><path d="M 1595.9 2104.2 Q 1746.4 1975.2 1896.9 2104.2 Q 1746.4 2061.2 1595.9 2104.2 Z" fill="#ffe066" opacity="0.91"/><rect x="1729.2" y="1893.5" width="34.4" height="96.8" rx="0" fill="#ffe0c2" opacity="0.91"/></g><g><circle cx="909.5" cy="1.8" r="44.9" fill="#ffe0c2" opacity="0.93"/><path d="M 766.7 246.6 Q 909.5 124.2 1052.3 246.6 Q 909.5 205.8 766.7 246.6 Z" fill="#ffe066" opacity="0.93"/><rect x="893.2" y="46.7" width="32.6" height="91.8" rx="0" fill="#ffe0c2" opacity="0.93"/></g></svg>