<svg xmlns="http://www.w3.org/2000/svg" viewBox="0 0 2048 2732" width="2048" height="2732"><defs><linearGradient id="lg1" x1="58.7%" y1="0.8%" x2="41.3%" y2="99.2%"><stop offset="0.0%" stop-color="#b8c4cc"/><stop offset="100.0%" stop-color="#dbe4ea"/></linearGradient><filter id="blur2" x="-60%" y="-60%" width="220%" height="220%"><feGaussianBlur stdDeviation="14"/></filter><radialGradient id="rg3" cx="40%" cy="35%" r="65%"><stop offset="0.0%" stop-color="#ffffffcc"/><stop offset="100.0%" stop-color="#ffffff00"/></radialGradient><radialGradient id="rg4" cx="40%" cy="35%" r="65%"><stop offset="0.0%" stop-color="#ffffffcc"/><stop offset="100.0%" stop-color="#ffffff00"/></radialGradient><radialGradient id="rg5" cx="40%" cy="35%" r="65%"><stop offset="0.0%" stop-color="#ffffffcc"/><stop offset="100.0%" stop-color="#ffffff00"/></radialGradient><radialGradient id="rg6" cx="40%" cy="35%" r="65%"><stop offset="0.0%" stop-color="#ffffffcc"/><stop offset="100.0%" stop-color="#ffffff00"/></radialGradient><radialGradient id="rg7" cx="50%" cy="45%" r="72%"><stop offset="0.0%" stop-color="#00000000"/><stop offset="100.0%" stop-color="#0b0b1a"/></radialGradient></defs><rect x="0.0" y="0.0" width="2048.0" height="2732.0" rx="0" fill="url(#lg1)" opacity="1.00"/><circle cx="619.9" cy="48.6" r="249.4" fill="#b8c4cc" opacity="0.19" filter="url(#blur2)"/><circle cx="1338.6" cy="-3.8" r="203.6" fill="#b8c4cc" opacity="0.21" filter="url(#blur2)"/><circle cx="1281.2" cy="365.7" r="139.8" fill="#b8c4cc" opacity="0.20" filter="url(#blur2)"/><circle cx="1564.2" cy="1832.2" r="153.4" fill="#dbe4ea" opacity="0.24" filter="url(#blur2)"/><circle cx="1094.4" cy="210.4" r="295.0" fill="#dbe4ea" opacity="0.19" filter="url(#blur2)"/><circle cx="1110.9" cy="-65.4" r="232.2" fill="#dbe4ea" opacity="0.15" filter="url(#blur2)"/><circle cx="1549.1" cy="287.3" r="298.2" fill="#dbe4ea" opacity="0.21" filter="url(#blur2)"/><circle cx="1371.5" cy="2727.7" r="203.7" fill="#b8c4cc" opacity="0.19" filter="url(#blur2)"/><circle cx="1673.7" cy="1916.2" r="96.1" fill="#b8c4cc" opacity="0.20" filter="url(#blur2)"/><circle cx="1475.4" cy="2539.0" r="108.7" fill="#dbe4ea" opacity="0.26" filter="url(#blur2)"/><circle cx="787.7" cy="1358.2" r="157.8" fill="#b8c4cc" opacity="0.27" filter="url(#blur2)"/><circle cx="648.4" cy="1284.7" r="135.3" fill="#b8c4cc" opacity="0.18" filter="url(#blur2)"/><ellipse cx="516.7" cy="2352.9" rx="97.3" ry="34.3" fill="#000000" opacity="0.28" filter="url(#blur2)"/><g><polygon points="316.4,2118.4 430.8,2118.4 359.3,1961.0" fill="#c1541c" opacity="0.95"/><polygon points="716.9,2118.4 602.5,2118.4 674.0,1961.0" fill="#c1541c" opacity="0.95"/><polygon points="350.7,2095.5 402.2,2095.5 367.9,2003.9" fill="#ffffff" opacity="0.95"/><polygon points="682.6,2095.5 631.1,2095.5 665.4,2003.9" fill="#ffffff" opacity="0.95"/><circle cx="516.7" cy="2232.8" r="185.9" fill="#c1541c" opacity="0.95"/><circle cx="445.2" cy="2204.2" r="22.9" fill="#2b2b2b" opacity="0.95"/><circle cx="588.2" cy="2204.2" r="22.9" fill="#2b2b2b" opacity="0.95"/><ellipse cx="516.7" cy="2275.7" rx="28.6" ry="20.0" fill="#2b2b2b" opacity="0.95"/></g><line x1="508.6" y1="2301.8" x2="507.6" y2="2310.5" stroke="#3a2a1a" stroke-width="1.6" stroke-linecap="round" opacity="0.33"/><line x1="525.4" y1="2272.5" x2="528.3" y2="2286.1" stroke="#3a2a1a" stroke-width="1.6" stroke-linecap="round" opacity="0.48"/><line x1="487.9" y1="2317.0" x2="485.9" y2="2322.7" stroke="#3a2a1a" stroke-width="1.6" stroke-linecap="round" opacity="0.42"/><line x1="522.1" y1="2280.5" x2="523.4" y2="2291.4" stroke="#3a2a1a" stroke-width="1.6" stroke-linecap="round" opacity="0.35"/><line x1="576.5" y1="2149.2" x2="580.3" y2="2143.9" stroke="#3a2a1a" stroke-width="1.6" stroke-linecap="round" opacity="0.46"/><line x1="427.2" y1="2151.9" x2="422.5" y2="2147.6" stroke="#3a2a1a" stroke-width="1.6" stroke-linecap="round" opacity="0.52"/><line x1="425.8" y1="2309.7" x2="417.7" y2="2316.5" stroke="#3a2a1a" stroke-width="1.6" stroke-linecap="round" opacity="0.54"/><line x1="429.3" y1="2257.7" x2="419.9" y2="2260.4" stroke="#3a2a1a" stroke-width="1.6" stroke-linecap="round" opacity="0.54"/><line x1="565.8" y1="2173.4" x2="569.7" y2="2168.7" stroke="#3a2a1a" stroke-width="1.6" stroke-linecap="round" opacity="0.42"/><line x1="461.9" y1="2199.2" x2="453.7" y2="2194.2" stroke="#3a2a1a" stroke-width="1.6" stroke-linecap="round" opacity="0.52"/><line x1="454.9" y1="2218.2" x2="440.6" y2="2214.8" stroke="#3a2a1a" stroke-width="1.6" stroke-linecap="round" opacity="0.52"/><line x1="580.6" y1="2140.0" x2="587.6" y2="2129.9" stroke="#3a2a1a" stroke-width="1.6" stroke-linecap="round" opacity="0.39"/><line x1="537.5" y1="2185.0" x2="542.8" y2="2172.7" stroke="#3a2a1a" stroke-width="1.6" stroke-linecap="round" opacity="0.32"/><line x1="530.8" y1="2190.6" x2="534.5" y2="2179.6" stroke="#3a2a1a" stroke-width="1.6" stroke-linecap="round" opacity="0.36"/><line x1="462.7" y1="2264.4" x2="451.0" y2="2271.2" stroke="#3a2a1a" stroke-width="1.6" stroke-linecap="round" opacity="0.52"/><line x1="413.1" y1="2185.7" x2="403.8" y2="2181.4" stroke="#3a2a1a" stroke-width="1.6" stroke-linecap="round" opacity="0.28"/><line x1="503.6" y1="2298.1" x2="502.1" y2="2305.7" stroke="#3a2a1a" stroke-width="1.6" stroke-linecap="round" opacity="0.45"/><line x1="494.7" y1="2142.3" x2="491.4" y2="2128.5" stroke="#3a2a1a" stroke-width="1.6" stroke-linecap="round" opacity="0.42"/><line x1="533.3" y1="2267.0" x2="539.0" y2="2278.7" stroke="#3a2a1a" stroke-width="1.6" stroke-linecap="round" opacity="0.40"/><line x1="455.6" y1="2289.9" x2="444.7" y2="2300.1" stroke="#3a2a1a" stroke-width="1.6" stroke-linecap="round" opacity="0.47"/><line x1="603.4" y1="2313.4" x2="613.5" y2="2322.7" stroke="#3a2a1a" stroke-width="1.6" stroke-linecap="round" opacity="0.36"/><line x1="531.9" y1="2282.2" x2="534.3" y2="2289.8" stroke="#3a2a1a" stroke-width="1.6" stroke-linecap="round" opacity="0.48"/><line x1="605.3" y1="2246.4" x2="617.9" y2="2248.4" stroke="#3a2a1a" stroke-width="1.6" stroke-linecap="round" opacity="0.31"/><line x1="464.6" y1="2308.6" x2="456.0" y2="2321.0" stroke="#3a2a1a" stroke-width="1.6" stroke-linecap="round" opacity="0.44"/><circle cx="453.7" cy="2152.7" r="108.7" fill="url(#rg3)" opacity="0.32"/><ellipse cx="1269.3" cy="2582.4" rx="103.7" ry="36.6" fill="#000000" opacity="0.28" filter="url(#blur2)"/><g><polygon points="1055.7,2332.1 1177.8,2332.1 1101.5,2164.3" fill="#c1541c" opacity="0.95"/><polygon points="1482.9,2332.1 1360.8,2332.1 1437.1,2164.3" fill="#c1541c" opacity="0.95"/><polygon points="1092.3,2307.7 1147.2,2307.7 1110.6,2210.1" fill="#ffffff" opacity="0.95"/><polygon points="1446.3,2307.7 1391.4,2307.7 1428.0,2210.1" fill="#ffffff" opacity="0.95"/><circle cx="1269.3" cy="2454.2" r="198.3" fill="#c1541c" opacity="0.95"/><circle cx="1193.0" cy="2423.7" r="24.4" fill="#2b2b2b" opacity="0.95"/><circle cx="1345.6" cy="2423.7" r="24.4" fill="#2b2b2b" opacity="0.95"/><ellipse cx="1269.3" cy="2500.0" rx="30.5" ry="21.4" fill="#2b2b2b" opacity="0.95"/></g><line x1="1202.2" y1="2518.4" x2="1193.4" y2="2526.8" stroke="#3a2a1a" stroke-width="1.6" stroke-linecap="round" opacity="0.27"/><line x1="1220.9" y1="2396.7" x2="1216.0" y2="2390.9" stroke="#3a2a1a" stroke-width="1.6" stroke-linecap="round" opacity="0.54"/><line x1="1386.4" y1="2469.1" x2="1398.2" y2="2470.6" stroke="#3a2a1a" stroke-width="1.6" stroke-linecap="round" opacity="0.46"/><line x1="1316.4" y1="2326.0" x2="1320.2" y2="2315.7" stroke="#3a2a1a" stroke-width="1.6" stroke-linecap="round" opacity="0.28"/><line x1="1270.4" y1="2510.3" x2="1270.6" y2="2522.1" stroke="#3a2a1a" stroke-width="1.6" stroke-linecap="round" opacity="0.49"/><line x1="1267.9" y1="2339.2" x2="1267.8" y2="2332.0" stroke="#3a2a1a" stroke-width="1.6" stroke-linecap="round" opacity="0.36"/><line x1="1262.1" y1="2351.3" x2="1261.3" y2="2340.1" stroke="#3a2a1a" stroke-width="1.6" stroke-linecap="round" opacity="0.26"/><line x1="1268.3" y1="2358.3" x2="1268.2" y2="2350.5" stroke="#3a2a1a" stroke-width="1.6" stroke-linecap="round" opacity="0.36"/><line x1="1265.6" y1="2399.7" x2="1264.8" y2="2387.6" stroke="#3a2a1a" stroke-width="1.6" stroke-linecap="round" opacity="0.51"/><line x1="1248.3" y1="2542.2" x2="1245.2" y2="2555.4" stroke="#3a2a1a" stroke-width="1.6" stroke-linecap="round" opacity="0.36"/><line x1="1298.0" y1="2497.8" x2="1306.0" y2="2510.1" stroke="#3a2a1a" stroke-width="1.6" stroke-linecap="round" opacity="0.32"/><line x1="1219.0" y1="2462.4" x2="1204.7" y2="2464.7" stroke="#3a2a1a" stroke-width="1.6" stroke-linecap="round" opacity="0.55"/><line x1="1174.1" y1="2414.8" x2="1160.3" y2="2409.1" stroke="#3a2a1a" stroke-width="1.6" stroke-linecap="round" opacity="0.38"/><line x1="1347.6" y1="2347.4" x2="1355.0" y2="2337.2" stroke="#3a2a1a" stroke-width="1.6" stroke-linecap="round" opacity="0.39"/><line x1="1260.4" y1="2536.8" x2="1259.0" y2="2549.9" stroke="#3a2a1a" stroke-width="1.6" stroke-linecap="round" opacity="0.53"/><line x1="1281.3" y1="2520.4" x2="1282.5" y2="2527.4" stroke="#3a2a1a" stroke-width="1.6" stroke-linecap="round" opacity="0.50"/><line x1="1348.1" y1="2421.0" x2="1362.0" y2="2415.1" stroke="#3a2a1a" stroke-width="1.6" stroke-linecap="round" opacity="0.31"/><line x1="1232.8" y1="2352.8" x2="1228.6" y2="2341.2" stroke="#3a2a1a" stroke-width="1.6" stroke-linecap="round" opacity="0.44"/><line x1="1173.5" y1="2548.6" x2="1169.0" y2="2553.1" stroke="#3a2a1a" stroke-width="1.6" stroke-linecap="round" opacity="0.29"/><line x1="1201.0" y1="2536.3" x2="1195.4" y2="2542.9" stroke="#3a2a1a" stroke-width="1.6" stroke-linecap="round" opacity="0.31"/><line x1="1324.0" y1="2453.6" x2="1331.0" y2="2453.5" stroke="#3a2a1a" stroke-width="1.6" stroke-linecap="round" opacity="0.45"/><line x1="1249.8" y1="2504.9" x2="1245.8" y2="2515.4" stroke="#3a2a1a" stroke-width="1.6" stroke-linecap="round" opacity="0.43"/><line x1="1339.4" y1="2480.5" x2="1347.0" y2="2483.4" stroke="#3a2a1a" stroke-width="1.6" stroke-linecap="round" opacity="0.45"/><line x1="1299.7" y1="2412.6" x2="1305.1" y2="2405.1" stroke="#3a2a1a" stroke-width="1.6" stroke-linecap="round" opacity="0.28"/><circle cx="1202.2" cy="2368.8" r="116.0" fill="url(#rg4)" opacity="0.32"/><ellipse cx="273.5" cy="676.7" rx="117.1" ry="41.3" fill="#000000" opacity="0.28" filter="url(#blur2)"/><g><polygon points="32.3,394.2 170.1,394.2 84.0,204.7" fill="#c1541c" opacity="0.94"/><polygon points="514.7,394.2 376.8,394.2 463.0,204.7" fill="#c1541c" opacity="0.94"/><polygon points="73.7,366.7 135.7,366.7 94.3,256.4" fill="#ffffff" opacity="0.94"/><polygon points="473.3,366.7 411.3,366.7 452.6,256.4" fill="#ffffff" opacity="0.94"/><circle cx="273.5" cy="532.0" r="223.9" fill="#c1541c" opacity="0.94"/><circle cx="187.4" cy="497.6" r="27.6" fill="#2b2b2b" opacity="0.94"/><circle cx="359.6" cy="497.6" r="27.6" fill="#2b2b2b" opacity="0.94"/><ellipse cx="273.5" cy="583.7" rx="34.5" ry="24.1" fill="#2b2b2b" opacity="0.94"/></g><line x1="243.8" y1="430.2" x2="241.8" y2="423.4" stroke="#3a2a1a" stroke-width="1.6" stroke-linecap="round" opacity="0.50"/><line x1="234.2" y1="481.5" x2="226.7" y2="471.8" stroke="#3a2a1a" stroke-width="1.6" stroke-linecap="round" opacity="0.41"/><line x1="308.7" y1="463.9" x2="313.6" y2="454.3" stroke="#3a2a1a" stroke-width="1.6" stroke-linecap="round" opacity="0.41"/><line x1="140.9" y1="462.9" x2="131.4" y2="457.9" stroke="#3a2a1a" stroke-width="1.6" stroke-linecap="round" opacity="0.42"/><line x1="192.6" y1="502.0" x2="182.6" y2="498.3" stroke="#3a2a1a" stroke-width="1.6" stroke-linecap="round" opacity="0.49"/><line x1="220.7" y1="402.0" x2="214.8" y2="387.6" stroke="#3a2a1a" stroke-width="1.6" stroke-linecap="round" opacity="0.53"/><line x1="151.5" y1="593.7" x2="139.1" y2="599.9" stroke="#3a2a1a" stroke-width="1.6" stroke-linecap="round" opacity="0.43"/><line x1="196.0" y1="576.4" x2="182.4" y2="584.2" stroke="#3a2a1a" stroke-width="1.6" stroke-linecap="round" opacity="0.25"/><line x1="204.4" y1="670.8" x2="199.4" y2="680.8" stroke="#3a2a1a" stroke-width="1.6" stroke-linecap="round" opacity="0.42"/><line x1="312.7" y1="428.2" x2="317.8" y2="414.7" stroke="#3a2a1a" stroke-width="1.6" stroke-linecap="round" opacity="0.39"/><line x1="185.9" y1="475.5" x2="174.7" y2="468.2" stroke="#3a2a1a" stroke-width="1.6" stroke-linecap="round" opacity="0.27"/><line x1="256.6" y1="475.1" x2="253.5" y2="464.6" stroke="#3a2a1a" stroke-width="1.6" stroke-linecap="round" opacity="0.51"/><line x1="227.6" y1="448.1" x2="222.6" y2="439.0" stroke="#3a2a1a" stroke-width="1.6" stroke-linecap="round" opacity="0.34"/><line x1="227.9" y1="580.1" x2="221.1" y2="587.3" stroke="#3a2a1a" stroke-width="1.6" stroke-linecap="round" opacity="0.47"/><line x1="218.5" y1="679.8" x2="214.3" y2="691.1" stroke="#3a2a1a" stroke-width="1.6" stroke-linecap="round" opacity="0.33"/><line x1="319.4" y1="679.7" x2="324.1" y2="694.9" stroke="#3a2a1a" stroke-width="1.6" stroke-linecap="round" opacity="0.52"/><line x1="354.6" y1="424.4" x2="358.2" y2="419.6" stroke="#3a2a1a" stroke-width="1.6" stroke-linecap="round" opacity="0.51"/><line x1="211.2" y1="670.3" x2="207.7" y2="678.1" stroke="#3a2a1a" stroke-width="1.6" stroke-linecap="round" opacity="0.35"/><line x1="297.1" y1="464.5" x2="300.9" y2="453.6" stroke="#3a2a1a" stroke-width="1.6" stroke-linecap="round" opacity="0.48"/><line x1="329.0" y1="569.8" x2="334.6" y2="573.5" stroke="#3a2a1a" stroke-width="1.6" stroke-linecap="round" opacity="0.33"/><line x1="338.8" y1="517.4" x2="347.4" y2="515.5" stroke="#3a2a1a" stroke-width="1.6" stroke-linecap="round" opacity="0.27"/><line x1="318.3" y1="490.1" x2="328.6" y2="480.4" stroke="#3a2a1a" stroke-width="1.6" stroke-linecap="round" opacity="0.27"/><line x1="158.6" y1="587.3" x2="149.2" y2="591.8" stroke="#3a2a1a" stroke-width="1.6" stroke-linecap="round" opacity="0.36"/><line x1="183.4" y1="502.9" x2="168.4" y2="498.1" stroke="#3a2a1a" stroke-width="1.6" stroke-linecap="round" opacity="0.35"/><circle cx="197.7" cy="435.6" r="130.9" fill="url(#rg5)" opacity="0.32"/><ellipse cx="719.2" cy="1526.6" rx="97.5" ry="34.4" fill="#000000" opacity="0.28" filter="url(#blur2)"/><g><polygon points="518.3,1291.3 633.1,1291.3 561.4,1133.6" fill="#c1541c" opacity="0.98"/><polygon points="920.0,1291.3 805.2,1291.3 876.9,1133.6" fill="#c1541c" opacity="0.98"/><polygon points="552.8,1268.4 604.4,1268.4 570.0,1176.6" fill="#ffffff" opacity="0.98"/><polygon points="885.5,1268.4 833.9,1268.4 868.3,1176.6" fill="#ffffff" opacity="0.98"/><circle cx="719.2" cy="1406.1" r="186.5" fill="#c1541c" opacity="0.98"/><circle cx="647.4" cy="1377.4" r="22.9" fill="#2b2b2b" opacity="0.98"/><circle cx="790.9" cy="1377.4" r="22.9" fill="#2b2b2b" opacity="0.98"/><ellipse cx="719.2" cy="1449.1" rx="28.7" ry="20.1" fill="#2b2b2b" opacity="0.98"/></g><line x1="762.6" y1="1351.1" x2="768.0" y2="1344.3" stroke="#3a2a1a" stroke-width="1.6" stroke-linecap="round" opacity="0.35"/><line x1="757.4" y1="1455.9" x2="763.1" y2="1463.3" stroke="#3a2a1a" stroke-width="1.6" stroke-linecap="round" opacity="0.48"/><line x1="746.9" y1="1510.5" x2="748.8" y2="1517.6" stroke="#3a2a1a" stroke-width="1.6" stroke-linecap="round" opacity="0.31"/><line x1="722.4" y1="1532.1" x2="722.6" y2="1540.7" stroke="#3a2a1a" stroke-width="1.6" stroke-linecap="round" opacity="0.28"/><line x1="788.0" y1="1431.5" x2="794.2" y2="1433.8" stroke="#3a2a1a" stroke-width="1.6" stroke-linecap="round" opacity="0.33"/><line x1="791.6" y1="1405.8" x2="802.8" y2="1405.8" stroke="#3a2a1a" stroke-width="1.6" stroke-linecap="round" opacity="0.28"/><line x1="805.2" y1="1400.5" x2="816.4" y2="1399.7" stroke="#3a2a1a" stroke-width="1.6" stroke-linecap="round" opacity="0.42"/><line x1="796.3" y1="1509.5" x2="805.9" y2="1522.3" stroke="#3a2a1a" stroke-width="1.6" stroke-linecap="round" opacity="0.25"/><line x1="729.6" y1="1464.2" x2="731.1" y2="1472.6" stroke="#3a2a1a" stroke-width="1.6" stroke-linecap="round" opacity="0.42"/><line x1="654.5" y1="1388.7" x2="646.9" y2="1386.7" stroke="#3a2a1a" stroke-width="1.6" stroke-linecap="round" opacity="0.32"/><line x1="687.7" y1="1494.4" x2="684.6" y2="1503.3" stroke="#3a2a1a" stroke-width="1.6" stroke-linecap="round" opacity="0.45"/><line x1="611.7" y1="1415.7" x2="595.8" y2="1417.1" stroke="#3a2a1a" stroke-width="1.6" stroke-linecap="round" opacity="0.27"/><line x1="623.2" y1="1408.1" x2="615.0" y2="1408.3" stroke="#3a2a1a" stroke-width="1.6" stroke-linecap="round" opacity="0.38"/><line x1="730.7" y1="1317.8" x2="732.5" y2="1304.0" stroke="#3a2a1a" stroke-width="1.6" stroke-linecap="round" opacity="0.31"/><line x1="798.8" y1="1386.7" x2="812.8" y2="1383.2" stroke="#3a2a1a" stroke-width="1.6" stroke-linecap="round" opacity="0.38"/><line x1="615.2" y1="1363.2" x2="608.2" y2="1360.3" stroke="#3a2a1a" stroke-width="1.6" stroke-linecap="round" opacity="0.51"/><line x1="724.6" y1="1459.9" x2="725.8" y2="1471.6" stroke="#3a2a1a" stroke-width="1.6" stroke-linecap="round" opacity="0.26"/><line x1="637.3" y1="1398.4" x2="631.0" y2="1397.8" stroke="#3a2a1a" stroke-width="1.6" stroke-linecap="round" opacity="0.46"/><line x1="706.6" y1="1361.0" x2="702.6" y2="1346.4" stroke="#3a2a1a" stroke-width="1.6" stroke-linecap="round" opacity="0.40"/><line x1="783.8" y1="1351.5" x2="792.9" y2="1343.8" stroke="#3a2a1a" stroke-width="1.6" stroke-linecap="round" opacity="0.45"/><line x1="764.0" y1="1440.9" x2="776.2" y2="1450.4" stroke="#3a2a1a" stroke-width="1.6" stroke-linecap="round" opacity="0.52"/><line x1="819.5" y1="1439.8" x2="827.5" y2="1442.4" stroke="#3a2a1a" stroke-width="1.6" stroke-linecap="round" opacity="0.55"/><line x1="811.7" y1="1388.9" x2="822.4" y2="1387.0" stroke="#3a2a1a" stroke-width="1.6" stroke-linecap="round" opacity="0.40"/><line x1="732.5" y1="1459.3" x2="734.8" y2="1468.3" stroke="#3a2a1a" stroke-width="1.6" stroke-linecap="round" opacity="0.39"/><circle cx="656.0" cy="1325.8" r="109.0" fill="url(#rg6)" opacity="0.32"/><rect x="0" y="0" width="2048" height="2732" fill="url(#rg7)" opacity="0.20"/></svg>